<svg width="353" height="310" viewBox="0 0 353 310" fill="none" xmlns="http://www.w3.org/2000/svg">
<g clip-path="url(#clip0_1720_66)">
<path d="M190.178 75.9291H147.64C152.891 69.6337 160.465 65.6816 168.914 65.6816C177.352 65.6816 184.949 69.6454 190.178 75.9291Z" fill="#F92D3C"/>
<path d="M195.837 86.2465H141.991C143.228 82.3877 145.177 78.9019 147.64 75.9408H190.177C192.628 78.9019 194.577 82.3877 195.837 86.2465Z" fill="#F7A238"/>
<path d="M197.483 96.5523H140.346C140.346 92.9267 140.918 89.4526 141.991 86.2466H195.837C196.911 89.4642 197.483 92.9267 197.483 96.5523Z" fill="#F3D352"/>
<path d="M197.483 96.5522C197.483 100.178 196.911 103.652 195.837 106.858H141.991C140.918 103.64 140.346 100.178 140.346 96.5522H197.483Z" fill="#29B44D"/>
<path d="M195.837 106.858C194.577 110.717 192.628 114.202 190.166 117.164H147.628C145.165 114.191 143.217 110.705 141.979 106.858H195.837Z" fill="#3364D5"/>
<path d="M190.178 117.175C184.949 123.471 177.352 127.423 168.914 127.423C160.465 127.423 152.88 123.459 147.64 117.175H190.178Z" fill="#8F439B"/>
<path d="M262.078 77.1066C208.967 44.0093 161.283 45.8163 130.648 53.1609C97.3882 61.135 76.7904 76.9667 75.9268 77.6429L86.8734 91.6909C87.0601 91.551 105.814 77.2581 135.561 70.2866C135.818 70.2283 136.087 70.17 136.343 70.1117C130.882 77.1649 127.614 86.025 127.614 95.608C127.614 113.608 139.051 128.973 155.074 134.826C159.544 136.446 164.363 137.332 169.382 137.332C174.412 137.332 179.22 136.446 183.689 134.826C199.712 128.973 211.149 113.608 211.149 95.608C211.149 86.2698 208.057 77.6079 202.84 70.648C219.61 74.7983 236.24 81.9797 252.637 92.2038L262.078 77.1066ZM184.296 118.714C183.491 117.129 182.441 115.683 181.192 114.436C178.181 111.405 173.991 109.539 169.382 109.539C164.772 109.539 160.582 111.405 157.571 114.436C156.323 115.683 155.272 117.129 154.467 118.714C146.893 113.818 141.863 105.296 141.863 95.6196C141.863 80.4525 154.199 68.1182 169.382 68.1182C184.565 68.1182 196.9 80.4525 196.9 95.6196C196.9 105.296 191.87 113.818 184.296 118.714Z" fill="#141414"/>
<path d="M169.382 106.73C175.054 106.73 179.652 102.137 179.652 96.4707C179.652 90.8047 175.054 86.2115 169.382 86.2115C163.71 86.2115 159.112 90.8047 159.112 96.4707C159.112 102.137 163.71 106.73 169.382 106.73Z" fill="#141414"/>
<path d="M0 118.434L39.3869 100.061L49.9951 127.306L9.09108 140.713L0 118.434ZM50.6486 151.089V306.549H7.36389V151.089H50.6486Z" fill="#141414"/>
<path d="M179.207 306.549H135.059L112.115 250.765H110.82V306.549H67.5234V151.089H119.689C150.428 151.089 171.201 163.201 171.201 196.928C171.201 217.901 163.196 233.686 150.86 241.684L179.207 306.549ZM115.791 218.333C123.365 218.333 128.127 211.851 128.127 200.391C128.127 186.774 124.019 183.09 115.57 183.09H110.808V218.333H115.791V218.333Z" fill="#141414"/>
<path d="M232.669 151.089V306.549H189.384V151.089H232.669Z" fill="#141414"/>
<path d="M257.993 261.351C270.118 268.707 285.044 274.326 295.221 274.326C304.09 274.326 307.556 269.791 307.556 263.951C307.556 254.869 300.192 252.059 284.834 245.787C267.305 238.653 247.606 226.761 247.606 199.085C247.606 168.821 268.169 146.973 300.846 146.973C329.636 146.973 347.818 165.999 353.011 174.65L324.431 198.222C318.806 191.74 310.8 184.174 301.056 184.174C294.999 184.174 290.447 187.415 290.447 193.909C290.447 201.265 296.294 204.506 309.271 210.557C329.181 219.86 350.607 230.235 350.607 260.068C350.607 282.767 335.028 310.012 297.146 310.012C272.254 310.012 253.43 300.93 245.412 296.173L257.993 261.351Z" fill="#141414"/>
<path d="M47.1009 30.719L61.2919 56.5183L54.1031 60.4588L39.9121 34.6711L47.1009 30.719Z" fill="#141414"/>
<path d="M79.2642 16.0764L90.6426 43.2281L84.1773 45.9328L76.3233 38.2151C75.448 37.3874 73.6975 35.5454 72.7755 34.1931L72.6355 34.298C73.9075 36.6996 74.8995 38.5415 75.5414 40.0571L78.9257 48.1361L71.5152 51.2372L60.1367 24.0855L66.9404 21.2409L74.4327 28.9353C74.9812 29.5065 76.7201 31.4418 78.0505 33.2371L78.1905 33.1205C77.3386 31.6166 76.0782 29.25 75.6697 28.2708L71.8536 19.1658L79.2642 16.0764Z" fill="#141414"/>
<path d="M101.064 9.13989L109.408 37.3874L101.542 39.7074L93.1982 11.4599L101.064 9.13989Z" fill="#141414"/>
<path d="M139.389 29.5183C137.428 31.1155 134.896 32.5377 131.5 33.144C122.665 34.7295 118.709 28.7489 117.192 20.3201C115.593 11.4483 117.145 4.34851 125.746 2.79799C132.328 1.62052 135.222 5.67753 136.646 9.6646L129.434 12.8706C128.594 10.2708 127.87 9.07004 126.376 9.33817C124.241 9.72289 124.649 13.1853 125.653 18.7113C126.692 24.482 128.29 26.6388 131.675 26.0325C133.53 25.7061 135.024 24.7618 136.88 23.2696L139.389 29.5183Z" fill="#141414"/>
<path d="M156.509 0.16333L158.411 29.5417L150.23 30.0663L148.328 0.687944L156.509 0.16333Z" fill="#141414"/>
<path d="M168.051 29.017L176.593 0L186.128 0.524614L192.161 30.346L183.771 29.8797L182.744 23.9574L177.504 23.6659L175.952 29.4483L168.051 29.017ZM179.044 18.0117L181.903 18.1633L181.296 11.3666C181.215 10.6205 181.145 8.94175 181.133 6.9249H180.888C180.69 9.04667 180.48 10.5972 180.304 11.4482L179.044 18.0117Z" fill="#141414"/>
<path d="M201.579 1.98193L222.224 5.70086L221.08 12.0312L214.79 10.9004L210.705 33.5404L202.641 32.0948L206.726 9.45476L200.436 8.32393L201.579 1.98193Z" fill="#141414"/>
<path d="M242.787 11.3549L234.478 39.6025L226.612 37.2942L234.921 9.04663L242.787 11.3549Z" fill="#141414"/>
<path d="M269.546 21.206L277.05 24.2954L259.113 48.7657L250.431 45.1983L255.017 15.2371L262.789 18.4314L259.778 33.3654C259.603 34.2281 258.74 37.061 257.923 39.4625L258.11 39.5442C259.195 37.2475 260.315 35.184 261.097 33.9133L269.546 21.206Z" fill="#141414"/>
<path d="M270.375 53.7205L290.541 31.1621L298.932 35.7204L291.591 65.2387L284.216 61.2283L285.826 55.4459L281.217 52.9394L277.342 57.4977L270.375 53.7205ZM285.021 48.4977L287.542 49.8617L289.911 43.4614C290.156 42.7502 290.809 41.1997 291.661 39.3811L291.451 39.2645C290.366 41.0948 289.514 42.4005 288.989 43.1L285.021 48.4977Z" fill="#141414"/>
</g>
<defs>
<clipPath id="clip0_1720_66">
<rect width="353" height="310" fill="white"/>
</clipPath>
</defs>
</svg>
