<svg width="25" height="24" viewBox="0 0 25 24" fill="none" xmlns="http://www.w3.org/2000/svg">
<g clip-path="url(#clip0_201_783)">
<path d="M24.8928 16.0001V21.0001C24.8928 21.7958 24.5767 22.5588 24.0141 23.1215C23.4515 23.6841 22.6884 24.0001 21.8928 24.0001H16.8928C15.4899 23.9987 14.112 23.6284 12.8974 22.9263C11.6828 22.2242 10.6742 21.2151 9.97276 20.0001C10.7266 19.9947 11.4779 19.9116 12.2148 19.7521C12.7759 20.4538 13.4878 21.0202 14.2975 21.4093C15.1073 21.7984 15.9943 22.0004 16.8928 22.0001H21.8928C22.158 22.0001 22.4123 21.8948 22.5999 21.7072C22.7874 21.5197 22.8928 21.2654 22.8928 21.0001V16.0001C22.8925 15.1014 22.69 14.2142 22.3001 13.4044C21.9103 12.5946 21.3431 11.8829 20.6408 11.3221C20.8016 10.5855 20.8861 9.83414 20.8928 9.08013C22.1077 9.78159 23.1168 10.7902 23.8189 12.0048C24.521 13.2194 24.8913 14.5972 24.8928 16.0001ZM18.8698 9.65113C18.9633 8.36277 18.7784 7.06938 18.3276 5.85883C17.8768 4.64828 17.1707 3.54896 16.2573 2.63555C15.3439 1.72215 14.2446 1.01607 13.0341 0.56529C11.8235 0.114515 10.5301 -0.0703926 9.24176 0.0231331C6.95868 0.283865 4.84969 1.37031 3.31194 3.07788C1.77419 4.78544 0.913788 6.99631 0.892761 9.29413L0.892761 14.3341C0.892761 16.8661 2.39976 18.0001 3.89276 18.0001H9.59276C11.8916 17.9804 14.1038 17.1205 15.8125 15.5827C17.5213 14.0448 18.6087 11.9352 18.8698 9.65113ZM14.8428 4.05113C15.5527 4.76264 16.1015 5.61833 16.4521 6.56032C16.8027 7.50231 16.9468 8.50861 16.8748 9.51113C16.6613 11.2948 15.8033 12.939 14.4621 14.1341C13.1209 15.3292 11.3891 15.9929 9.59276 16.0001H3.89276C2.96476 16.0001 2.89276 14.7251 2.89276 14.3341V9.29413C2.9011 7.49851 3.56541 5.76784 4.76068 4.42781C5.95595 3.08778 7.59975 2.2308 9.38276 2.01813C9.54876 2.00613 9.71476 2.00013 9.88076 2.00013C10.802 1.99927 11.7144 2.17997 12.5658 2.53189C13.4173 2.88381 14.191 3.40006 14.8428 4.05113Z" fill="#FF408E"/>
</g>
<defs>
<clipPath id="clip0_201_783">
<rect width="24" height="24" fill="white" transform="translate(0.892761)"/>
</clipPath>
</defs>
</svg>
