<svg width="338" height="161" viewBox="0 0 338 161" fill="none" xmlns="http://www.w3.org/2000/svg">
<path d="M207.443 49.4005H130.219C139.751 37.9778 153.501 30.7837 168.853 30.7837C184.161 30.7837 197.945 37.9666 207.443 49.4005Z" fill="#F92D3C"/>
<path d="M217.73 68.1302H119.953C122.209 61.1278 125.74 54.7906 130.207 49.4006H207.431C211.909 54.7906 215.44 61.1278 217.73 68.1302Z" fill="#F7A238"/>
<path d="M220.709 86.871H116.977C116.977 80.2744 118.014 73.9824 119.955 68.1414H217.731C219.672 73.9824 220.709 80.2744 220.709 86.871Z" fill="#F3D352"/>
<path d="M220.709 86.8711C220.709 93.4676 219.672 99.7597 217.731 105.601H119.955C118.014 99.7597 116.977 93.4563 116.977 86.8711H220.709Z" fill="#29B44D"/>
<path d="M217.73 105.601C215.44 112.603 211.91 118.94 207.443 124.33H130.219C125.752 118.94 122.221 112.603 119.965 105.601H217.73Z" fill="#3364D5"/>
<path d="M207.443 124.33C197.945 135.753 184.16 142.947 168.842 142.947C153.489 142.947 139.739 135.753 130.207 124.33H207.443Z" fill="#8F439B"/>
<path d="M338 51.5439C241.554 -8.60274 154.99 -5.31012 99.356 8.02949C38.9618 22.5193 1.56795 51.2846 0 52.5024L19.8644 78.0315C20.2028 77.7721 54.2691 51.8033 108.267 39.1515C108.741 39.0387 109.215 38.9485 109.677 38.8358C99.7508 51.6454 93.84 67.7477 93.84 85.1692C93.84 117.87 114.618 145.789 143.71 156.434C151.832 159.377 160.574 160.99 169.688 160.99C178.814 160.99 187.545 159.377 195.666 156.434C224.758 145.789 245.525 117.881 245.525 85.1692C245.525 68.1987 239.896 52.4573 230.432 39.8168C260.877 47.3492 291.063 60.3957 320.854 78.9787L338 51.5439ZM196.772 127.139C195.317 124.263 193.41 121.636 191.143 119.381C185.672 113.878 178.069 110.484 169.688 110.484C161.307 110.484 153.704 113.878 148.233 119.381C145.966 121.647 144.059 124.263 142.604 127.139C128.854 118.242 119.728 102.749 119.728 85.1805C119.728 57.6217 142.119 35.2049 169.688 35.2049C197.257 35.2049 219.648 57.6217 219.648 85.1805C219.659 102.749 210.534 118.242 196.772 127.139Z" fill="#141414"/>
<path d="M169.689 105.364C179.993 105.364 188.346 97.0136 188.346 86.7131C188.346 76.4127 179.993 68.0625 169.689 68.0625C159.384 68.0625 151.031 76.4127 151.031 86.7131C151.031 97.0136 159.384 105.364 169.689 105.364Z" fill="#141414"/>
</svg>
