<svg width="30" height="24" viewBox="0 0 30 24" fill="none" xmlns="http://www.w3.org/2000/svg">
<g clip-path="url(#clip0_191_302)">
<path d="M29.5907 11.0674L18.6812 0.400865C18.5594 0.270617 18.4115 0.167599 18.2471 0.0985751C18.0827 0.0295513 17.9055 -0.0039178 17.7272 0.000364762C17.5449 -0.0026948 17.3639 0.0312149 17.195 0.100049C17.0261 0.168882 16.873 0.271213 16.7447 0.400865C16.6198 0.521385 16.5213 0.666558 16.4554 0.827172C16.3896 0.987785 16.3579 1.16033 16.3622 1.33386C16.3593 1.51123 16.3916 1.6874 16.4573 1.85219C16.523 2.01698 16.6207 2.1671 16.7447 2.29386L25.3352 10.6669H1.36374C1.18141 10.6638 1.00035 10.6977 0.831491 10.7665C0.66263 10.8354 0.509464 10.9377 0.381235 11.0674C0.256232 11.1878 0.157669 11.333 0.0918167 11.4936C0.0259648 11.6542 -0.00573309 11.8268 -0.00126377 12.0004C-0.00416969 12.1777 0.0281421 12.3539 0.0937994 12.5187C0.159457 12.6835 0.257154 12.8336 0.381235 12.9604C0.648104 13.2072 1.00026 13.3411 1.36374 13.3339H25.3367L16.7462 21.7339C16.6213 21.8544 16.5228 21.9996 16.4569 22.1602C16.3911 22.3208 16.3594 22.4933 16.3637 22.6669C16.3608 22.8442 16.3931 23.0204 16.4588 23.1852C16.5245 23.35 16.6222 23.5001 16.7462 23.6269C17.0131 23.8737 17.3653 24.0076 17.7287 24.0004C17.9047 24.0053 18.0798 23.9748 18.2437 23.9107C18.4076 23.8465 18.5569 23.75 18.6827 23.6269L29.5922 12.9604C29.7234 12.8375 29.8275 12.6887 29.898 12.5235C29.9685 12.3582 30.0038 12.18 30.0017 12.0004C30.0052 11.8243 29.9702 11.6496 29.8992 11.4885C29.8283 11.3273 29.723 11.1836 29.5907 11.0674Z" fill="white"/>
</g>
<defs>
<clipPath id="clip0_191_302">
<rect width="30" height="24" fill="white"/>
</clipPath>
</defs>
</svg>
