<svg width="25" height="25" viewBox="0 0 25 25" fill="none" xmlns="http://www.w3.org/2000/svg">
<g clip-path="url(#clip0_191_316)">
<path d="M16.0476 20.1941L20.0473 20.2428C21.1081 20.2557 22.1306 19.8467 22.8898 19.1058C23.649 18.3648 24.0828 17.3526 24.0957 16.2918L24.1444 12.2921C24.1509 11.7617 23.9464 11.2505 23.5759 10.8709C23.2054 10.4912 22.6993 10.2744 22.1689 10.2679L16.2594 10.1959C16.5136 8.80238 17.2522 7.54355 18.3448 6.64185C19.4373 5.74016 20.8133 5.25364 22.2298 5.26826C22.495 5.27149 22.7506 5.16924 22.9404 4.984C23.1302 4.79876 23.2387 4.54571 23.2419 4.28051C23.2451 4.01532 23.1429 3.7597 22.9576 3.56989C22.7724 3.38009 22.5193 3.27164 22.2542 3.26841C20.1333 3.24497 18.0897 4.06376 16.5718 5.54516C15.0539 7.02656 14.1855 9.04959 14.1573 11.1704L14.0721 18.1699C14.0656 18.7003 14.2701 19.2115 14.6406 19.5911C15.0111 19.9707 15.5172 20.1876 16.0476 20.1941Z" fill="#FF408E"/>
<path d="M2.04848 20.0237L6.04818 20.0724C7.10897 20.0853 8.13144 19.6763 8.89066 18.9353C9.64989 18.1944 10.0837 17.1822 10.0966 16.1214L10.1453 12.1217C10.1518 11.5913 9.94725 11.0801 9.57678 10.7004C9.2063 10.3208 8.70019 10.1039 8.1698 10.0975L2.26024 10.0255C2.5145 8.63197 3.25313 7.37314 4.34564 6.47144C5.43815 5.56975 6.81421 5.08323 8.23068 5.09785C8.49588 5.10108 8.7515 4.99883 8.94131 4.81359C9.13111 4.62835 9.23956 4.3753 9.24279 4.1101C9.24602 3.84491 9.14377 3.58929 8.95853 3.39948C8.77329 3.20968 8.52024 3.10123 8.25504 3.098C6.13417 3.07456 4.0906 3.89335 2.57267 5.37475C1.05474 6.85615 0.186426 8.87918 0.158217 11L0.0729791 17.9995C0.06652 18.5299 0.271024 19.0411 0.641502 19.4207C1.01198 19.8003 1.51808 20.0172 2.04848 20.0237Z" fill="#FF408E"/>
</g>
<defs>
<clipPath id="clip0_191_316">
<rect width="24" height="24" fill="white" transform="translate(23.9983 24.2905) rotate(-179.302)"/>
</clipPath>
</defs>
</svg>
