<svg width="30" height="24" viewBox="0 0 30 24" fill="none" xmlns="http://www.w3.org/2000/svg">
<g clip-path="url(#clip0_191_306)">
<path d="M0.409264 12.9326L11.3188 23.5991C11.4406 23.7294 11.5885 23.8324 11.7529 23.9014C11.9173 23.9704 12.0945 24.0039 12.2728 23.9996C12.4551 24.0027 12.6361 23.9688 12.805 23.9C12.9739 23.8311 13.127 23.7288 13.2553 23.5991C13.3802 23.4786 13.4787 23.3334 13.5446 23.1728C13.6104 23.0122 13.6421 22.8397 13.6378 22.6661C13.6407 22.4888 13.6084 22.3126 13.5427 22.1478C13.477 21.983 13.3793 21.8329 13.2553 21.7061L4.66476 13.3331L28.6363 13.3331C28.8186 13.3362 28.9996 13.3023 29.1685 13.2335C29.3374 13.1646 29.4905 13.0623 29.6188 12.9326C29.7438 12.8122 29.8423 12.667 29.9082 12.5064C29.974 12.3458 30.0057 12.1732 30.0013 11.9996C30.0042 11.8223 29.9719 11.6461 29.9062 11.4813C29.8405 11.3165 29.7428 11.1664 29.6188 11.0396C29.3519 10.7928 28.9997 10.6589 28.6363 10.6661L4.66327 10.6661L13.2538 2.26614C13.3787 2.14562 13.4772 2.00044 13.5431 1.83983C13.6089 1.67921 13.6406 1.50667 13.6363 1.33314C13.6392 1.15577 13.6069 0.979597 13.5412 0.81481C13.4755 0.650023 13.3778 0.499901 13.2538 0.373137C12.9869 0.126253 12.6347 -0.00761795 12.2713 -0.000362396C12.0953 -0.00533867 11.9202 0.0251694 11.7563 0.0893402C11.5924 0.153509 11.4431 0.250025 11.3173 0.373137L0.407764 11.0396C0.276617 11.1625 0.17248 11.3113 0.101978 11.4765C0.0314751 11.6418 -0.00384331 11.82 -0.00173569 11.9996C-0.00520897 12.1757 0.029768 12.3504 0.100754 12.5115C0.171738 12.6727 0.27702 12.8164 0.409264 12.9326Z" fill="white"/>
</g>
<defs>
<clipPath id="clip0_191_306">
<rect width="30" height="24" fill="white" transform="matrix(-1 0 0 -1 30 24)"/>
</clipPath>
</defs>
</svg>
