<svg width="16" height="16" viewBox="0 0 16 16" fill="none" xmlns="http://www.w3.org/2000/svg">
<path d="M15.7126 14.4753L12.696 11.463C13.6693 10.2211 14.1974 8.68756 14.1954 7.10882C14.1954 5.70283 13.7792 4.32841 12.9992 3.15937C12.2193 1.99033 11.1108 1.07918 9.81389 0.54113C8.51696 0.00308013 7.08984 -0.137698 5.71302 0.136597C4.3362 0.410893 3.07151 1.08794 2.07888 2.08213C1.08624 3.07631 0.410251 4.34299 0.136384 5.72196C-0.137483 7.10094 0.00307532 8.53028 0.540284 9.82925C1.07749 11.1282 1.98722 12.2385 3.15444 13.0196C4.32165 13.8007 5.69392 14.2176 7.09772 14.2176C8.67399 14.2196 10.2051 13.6907 11.4451 12.7159L14.4527 15.7372C14.5352 15.8204 14.6333 15.8865 14.7414 15.9317C14.8496 15.9768 14.9655 16 15.0826 16C15.1998 16 15.3157 15.9768 15.4238 15.9317C15.532 15.8865 15.6301 15.8204 15.7126 15.7372C15.7957 15.6545 15.8617 15.5563 15.9068 15.448C15.9518 15.3397 15.975 15.2236 15.975 15.1062C15.975 14.9889 15.9518 14.8728 15.9068 14.7645C15.8617 14.6562 15.7957 14.5579 15.7126 14.4753ZM1.77443 7.10882C1.77443 6.05433 2.08664 5.02352 2.67157 4.14674C3.2565 3.26996 4.08788 2.58659 5.06058 2.18305C6.03329 1.77952 7.10362 1.67393 8.13624 1.87965C9.16885 2.08538 10.1174 2.59316 10.8618 3.3388C11.6063 4.08444 12.1133 5.03444 12.3187 6.06868C12.5241 7.10291 12.4187 8.17492 12.0158 9.14914C11.6129 10.1234 10.9306 10.9561 10.0552 11.5419C9.17976 12.1277 8.15056 12.4404 7.09772 12.4404C5.68589 12.4404 4.33189 11.8787 3.33359 10.8788C2.33528 9.87897 1.77443 8.52286 1.77443 7.10882Z" fill="white"/>
</svg>
