<svg width="14" height="15" viewBox="0 0 14 15" fill="none" xmlns="http://www.w3.org/2000/svg">
<path d="M13.77 12.6857L11.1264 10.0458C11.9794 8.95747 12.4422 7.61351 12.4404 6.22995C12.4404 4.99779 12.0756 3.79329 11.3921 2.76878C10.7087 1.74427 9.73719 0.94576 8.60059 0.47423C7.464 0.00269933 6.21332 -0.120674 5.00672 0.11971C3.80011 0.360094 2.69178 0.953439 1.82186 1.82471C0.951949 2.69599 0.359531 3.80606 0.119523 5.01455C-0.120486 6.22304 0.00269511 7.47568 0.473489 8.61405C0.944282 9.75243 1.74154 10.7254 2.76445 11.41C3.78736 12.0945 4.98998 12.4599 6.22022 12.4599C7.60162 12.4616 8.94347 11.9981 10.0301 11.1438L12.6659 13.7916C12.7382 13.8645 12.8242 13.9225 12.9189 13.962C13.0137 14.0016 13.1153 14.0219 13.218 14.0219C13.3206 14.0219 13.4222 14.0016 13.517 13.962C13.6117 13.9225 13.6977 13.8645 13.77 13.7916C13.8429 13.7192 13.9007 13.633 13.9402 13.5381C13.9797 13.4432 14 13.3415 14 13.2386C14 13.1358 13.9797 13.0341 13.9402 12.9392C13.9007 12.8443 13.8429 12.7581 13.77 12.6857ZM1.55506 6.22995C1.55506 5.30583 1.82866 4.40246 2.34128 3.63407C2.85389 2.86569 3.58249 2.26681 4.43494 1.91316C5.28739 1.55951 6.2254 1.46698 7.13035 1.64727C8.0353 1.82756 8.86655 2.27257 9.51899 2.92602C10.1714 3.57948 10.6157 4.41203 10.7957 5.3184C10.9757 6.22477 10.8834 7.16425 10.5303 8.01803C10.1772 8.87181 9.57923 9.60155 8.81205 10.115C8.04486 10.6284 7.1429 10.9024 6.22022 10.9024C4.98294 10.9024 3.79634 10.4101 2.92145 9.53388C2.04656 8.65763 1.55506 7.46917 1.55506 6.22995Z" fill="#7C7C7C"/>
</svg>
