<svg width="1001" height="564" viewBox="0 0 1001 564" fill="none" xmlns="http://www.w3.org/2000/svg">
<g clip-path="url(#clip0_4_48)">
<path d="M937.774 563.023L68.5229 562.744C68.5229 562.744 -47.7394 428.665 48.8638 283.508C90.1704 221.433 146.42 174.346 217.813 180.407C250.071 183.12 406.101 220.728 505.687 87.4724C520.192 68.0644 533.921 49.3139 552.29 36.0257C591.413 7.54164 641.366 -2.76665 689.076 0.616128C778.554 6.96106 867.961 61.0381 900.929 150.353C929.494 227.713 905.178 282.797 901.87 318.556C891.727 426.503 998.958 439.436 937.774 563.023Z" fill="#EAEAEA"/>
<path d="M505.687 87.4724C511.818 79.2732 517.807 71.1865 524.068 63.5856C641.324 104.866 796.467 172.054 911.161 267.773C909.96 275.569 908.403 283.514 906.474 291.6C906.433 291.772 906.391 291.944 906.35 292.116C906.125 293.052 905.906 293.988 905.693 294.912C905.675 294.989 905.657 295.066 905.646 295.137C905.563 295.499 905.486 295.86 905.403 296.221C904.835 298.798 904.332 301.328 903.888 303.81C903.817 304.201 903.746 304.586 903.681 304.977C903.491 306.062 903.314 307.128 903.154 308.194C903.083 308.662 903.018 309.124 902.947 309.592C727.465 232.114 538.886 190.395 401.888 168.375C438.336 153.795 474.737 128.883 505.687 87.4724Z" fill="#F4F4F4"/>
<path d="M88.0578 234.715C275.932 246.564 627.435 301.832 915.83 393.801C933.501 430.211 960.386 457.143 956.338 503.483C774.695 435.206 430.382 317.33 69.9254 254.893C75.7723 247.76 81.7197 241.107 88.0578 234.715Z" fill="#F4F4F4"/>
<path d="M929.11 417.972C951.491 455.941 973.748 490.349 937.774 563.022L68.5229 562.744C68.5229 562.744 15.8362 501.978 10.8711 417.972H929.11Z" fill="#D5D6DA"/>
<path d="M955.509 510.468C889.525 485.035 752.083 482.683 648.562 508.554C543.396 534.835 371.014 477.695 34.2111 507.18C50.2485 541.665 68.5229 562.738 68.5229 562.738L937.774 563.017C947.757 542.856 953.255 525.634 955.509 510.468Z" fill="#B8C1C9"/>
<path d="M195.502 538.229C368.706 496.996 659.048 547.175 659.048 547.175C778.341 517.441 868.097 521.677 949.331 535.486C946.449 544.029 942.733 553.265 939.697 563.022L68.5229 562.744C68.5229 562.744 56.7049 549.112 43.733 525.836C109.859 523.946 195.502 538.229 195.502 538.229Z" fill="#8895A5"/>
<path d="M341.052 439.673H721.813C759.374 416.994 809.652 330.15 849.396 262.684C850.751 260.604 853.556 260.006 855.64 261.363L876.82 274.171C878.897 275.528 879.494 278.336 878.139 280.421L752.84 472.985C751.154 475.544 749.893 477.695 745.704 477.695H341.052C337.768 477.695 335.081 475.005 335.081 471.717V445.65C335.081 442.362 337.768 439.673 341.052 439.673Z" fill="#657285"/>
<path d="M727.062 477.695L730.169 492.387L775.169 561.222C775.293 561.962 776.311 562.525 777.524 562.525C779.832 562.525 781.631 561.293 781.388 559.871L745.698 485.924L744.348 477.695H727.062Z" fill="#131F2D"/>
<path d="M727.062 477.695L730.169 492.387C732.305 486.534 745.698 485.924 745.698 485.924L744.348 477.695H727.062Z" fill="#131F2D"/>
<path d="M322.263 562.531C323.476 562.531 324.488 561.968 324.612 561.227L369.612 492.393L371.553 483.222L372.725 477.695H355.438L354.089 485.924L353.03 492.381L318.399 559.871C318.156 561.293 319.955 562.531 322.263 562.531Z" fill="#131F2D"/>
<path d="M353.03 492.381C357.427 485.379 371.547 483.228 371.547 483.228C371.547 483.228 371.547 483.228 371.553 483.222L372.725 477.695H355.438L354.089 485.924L353.03 492.381Z" fill="#131F2D"/>
<path d="M424.086 428.624C424.086 428.624 403.184 442.196 399.059 438.292C394.331 433.813 393.07 428.665 383.081 412.515C374.914 399.31 367.345 387.183 366.209 382.775C365.463 379.867 376.246 381.371 383.152 389.423C390.058 397.474 406.178 409.21 417.878 404.31C432.601 398.131 424.086 428.624 424.086 428.624Z" fill="#131F2D"/>
<path d="M680.631 273.555C680.631 273.555 668.328 272.897 664.44 270.871C660.557 268.845 646.893 258.549 641.514 258.507C636.129 258.466 623.884 263.205 620.955 265.308C615.688 269.094 629.915 273.626 638.36 272.465C639.584 272.299 640.821 272.643 641.774 273.436C644.603 275.8 650.615 280.469 654.438 280.948C659.575 281.6 683.193 291.66 683.193 291.66L680.631 273.555Z" fill="#EF6343"/>
<path d="M828.773 230.053C828.773 230.053 780.293 315.149 751.704 311.897C737.596 310.292 701.527 301.749 665.694 284.58C665.694 284.58 663.416 277.151 667.967 272.352C667.967 272.352 730.773 279.254 744.165 272.406C764.096 262.216 775.115 201.154 797.467 193.476C819.819 185.798 828.376 201.711 828.773 230.053Z" fill="#EF6343"/>
<path d="M685.655 440.976C675.612 441.023 665.629 440.099 655.924 438.802C625.932 434.791 598.663 427.22 580.956 433.624C577.429 434.903 573.446 435.97 569.103 436.847C564.706 437.735 559.936 438.434 554.894 438.967C535.933 440.982 513.161 440.668 491.916 439.465C455.19 437.386 423.423 433.772 423.423 433.772C415.949 425.152 407.309 406.573 408.32 402.172C412.102 401.573 454.444 393.623 509.244 385.074C531.495 381.608 555.154 377.917 577.98 374.363C581.027 373.883 584.063 373.415 587.069 372.947C594.053 371.857 600.929 370.785 607.622 369.742C659.078 361.715 700.059 355.328 700.059 355.328C700.059 355.328 758.853 405.027 746.591 421.74C736.489 435.508 726.737 440.798 685.655 440.976Z" fill="#723D92"/>
<path d="M516.097 424.323C516.097 424.323 518.777 447.83 510.978 451.349C506.551 453.346 482.258 452.208 482.258 452.208C482.258 452.208 449.385 454.104 446.544 452.996C443.703 451.888 451.053 444.85 458.954 441.402C468.671 437.161 486.785 430.768 490.508 418.333C495.1 403.025 516.097 424.323 516.097 424.323Z" fill="#131F2D"/>
<path d="M484.75 419.364C484.75 419.364 492.792 431.704 518.369 430.857C518.369 430.857 574.654 371.063 582.264 350.464C582.613 349.522 583.436 349.214 584.673 349.451C600.083 352.39 679.761 439.649 707.705 440.603C717.333 440.934 725.311 438.991 732.051 437.469C753.639 432.599 770.973 391.123 770.973 391.123L690.271 330.381C690.271 330.381 618.31 263.709 576.494 269.805C536.72 275.611 484.75 419.364 484.75 419.364Z" fill="#723D92"/>
<path opacity="0.5" d="M732.051 437.469C753.639 432.599 770.973 391.123 770.973 391.123L768.576 388.966L741.549 378.326C741.549 378.326 682.199 393.765 647.301 366.531C614.611 341.021 587.933 348.409 584.679 349.445C600.089 352.384 679.767 439.643 707.711 440.597C717.333 440.934 725.311 438.991 732.051 437.469Z" fill="#56127E"/>
<path d="M778.222 207.292C797.923 217.955 827.08 190.141 827.08 190.141C827.08 190.141 822.074 181.793 821.346 162.954C821.304 161.882 821.369 160.792 821.423 159.678C819.334 158.665 815.398 156.751 811.179 154.701L791.537 165.134C791.537 165.134 790.425 171.212 789.886 182.001C789.792 183.885 789.715 185.911 789.667 188.079C778.773 197.351 778.222 207.292 778.222 207.292Z" fill="#FF7955"/>
<path d="M825.009 301.577C806.823 337.555 778.713 389.938 770.505 398.078C734.134 389.873 687.981 337.016 688.419 329.19C688.857 321.364 702.947 303.544 708.054 294.403C708.61 293.366 709.22 292.228 709.877 291.251L710.078 290.872C710.185 290.676 710.291 290.481 710.403 290.285C716.061 280.066 722.263 269.455 728.512 258.981C732.442 252.405 750.562 226.214 757.545 217.86C765.919 207.848 785.969 191.657 785.969 191.657C788.182 195.301 794.739 191.462 803.438 191.788C812.854 192.137 825.737 183.624 826.601 185.253C841.638 213.743 848.118 255.841 825.009 301.577Z" fill="#364154"/>
<path d="M832.956 235.479C823.227 266.309 783.418 329.617 753.054 329.172C727.849 328.805 703.533 325.718 690.514 322.638C694.715 313.816 704.095 301.5 708.054 294.403C708.326 293.893 708.61 293.366 708.912 292.838C718.949 288.976 741.703 279.675 744.171 272.411C749.503 256.7 761.392 225.55 776.79 207.748C789.158 193.44 828.773 218.459 832.956 235.479Z" fill="#131F2D"/>
<path d="M791.537 165.134C791.537 165.134 790.425 171.212 789.886 182.001C806.841 180.816 817.475 168.381 821.34 162.954C821.334 161.882 821.363 160.792 821.417 159.678C819.328 158.665 815.392 156.751 811.173 154.701L791.537 165.134Z" fill="#EF6343"/>
<path d="M787.182 173.683C787.182 173.683 822.831 176.45 824.21 154.198C825.589 131.946 831.122 117.319 808.421 114.612C785.72 111.904 780.767 120.121 778.5 127.432C776.234 134.748 777.944 172.391 787.182 173.683Z" fill="#FF7955"/>
<path d="M683.578 309.877L604.622 270.836L617.736 192.475C617.884 191.58 617.286 190.739 616.392 190.591C615.505 190.443 614.658 191.041 614.511 191.936L600.882 273.377C600.734 274.26 601.184 275.137 601.988 275.534L681.205 314.705L683.578 309.877Z" fill="#131F2D"/>
<path d="M677.619 317.679C677.619 317.679 648.503 311.085 639.271 305.374C630.039 299.657 624.429 290.925 624.464 287.909C624.5 284.894 624.163 279.337 630.293 283.525C636.424 287.714 644.627 293.757 645.556 292.643C646.485 291.529 640.815 288.727 640.815 288.727C640.815 288.727 640.407 285.374 642.585 286.399C644.763 287.424 651.864 288.976 653.574 291.34C655.285 293.703 655.196 299.083 656.977 299.788C658.758 300.493 683.033 302.057 683.033 302.057L677.619 317.679Z" fill="#FF7955"/>
<path d="M832.294 233.388C832.294 233.388 782.619 322.928 753.841 322.851C739.644 322.816 686.365 323.171 662.445 313.822C662.445 313.822 661.771 310.831 664.102 300.659C664.102 300.659 732.951 290.937 745.508 282.649C764.197 270.32 764.913 210.2 786.282 200.099C807.658 190.004 837.803 206.456 832.294 233.388Z" fill="#FF7955"/>
<path d="M823.636 201.118C832.519 207.789 838.874 225.13 830.814 240.468C822.748 255.806 806.758 277.37 806.758 277.37C769.008 262.921 758.125 249.36 758.125 249.36C766.12 212.902 784.164 194.892 800.237 194.892C816.304 194.892 823.636 201.118 823.636 201.118Z" fill="#364154"/>
<path d="M821.346 162.948C821.346 162.948 820.227 157.764 820.079 150.442C820.079 150.442 825.814 144.873 822.008 139.203C818.582 134.097 815.055 144.369 813.972 143.078C812.883 141.781 809.196 137.023 808.338 129.636C807.48 122.248 782.276 124.689 779.276 125.24C776.275 125.791 768.694 119.167 767.901 115.127C767.901 115.127 773.683 112.461 776.565 110.103C779.453 107.745 799.485 91.9571 819.334 102.769C839.182 113.581 839.567 124.44 836.211 132.835C832.85 141.224 830.761 162.19 821.346 162.948Z" fill="#131F2D"/>
<path d="M894.544 497.446C894.544 497.446 860.972 484.525 872.056 458.802C872.056 458.802 881.554 442.617 893.443 437.084C893.443 437.084 891.904 473.281 898.651 473.151C905.397 473.02 897.461 432.694 897.461 432.694C897.461 432.694 927.903 412.207 940.922 411.591C940.922 411.591 925.601 448.938 932.104 447.149C938.608 445.36 956.362 407.243 956.362 407.243C956.362 407.243 989.005 396.17 997.266 415.294C1005.52 434.412 998.26 445.62 993.472 447.587C988.685 449.548 956.734 453.749 958.161 457.777C959.587 461.806 982.081 465.319 993.549 459.851C993.549 459.851 985.028 494.52 967.392 495.379C949.757 496.238 942.822 486.238 931.933 486.966C921.044 487.695 913.599 491.735 919.399 493.856C925.198 495.977 943.141 491.392 952.906 497.535C962.67 503.679 970.369 507.221 954.699 512.873C939.028 518.525 909.741 520.646 902.148 509.052C894.544 497.446 894.544 497.446 894.544 497.446Z" fill="#016EB9"/>
<path d="M982.826 423.73C982.826 423.73 899.929 464.501 894.544 497.446C894.544 497.446 896.994 511.481 890.632 528.91L891.531 535.131C891.531 535.131 897.591 512.672 902.142 509.046C902.136 509.046 878.719 484.502 982.826 423.73Z" fill="#016EB9"/>
<path d="M892.354 562.531H887.271C883.554 543.994 890.626 528.91 890.626 528.91C890.626 528.91 897.473 517.145 892.437 531.908C889.49 540.575 890.78 553.407 892.354 562.531Z" fill="#016EB9"/>
<path d="M834.903 505.9C834.903 505.9 860.534 479.276 839.052 460.159C839.052 460.159 823.186 449.228 809.729 449.258C809.729 449.258 826.873 482.268 820.541 485.082C814.209 487.896 804.089 446.924 804.089 446.924C804.089 446.924 766.872 441.106 754.497 446.195C754.497 446.195 784.963 474.276 778.133 475.443C771.304 476.611 738.247 448.867 738.247 448.867C738.247 448.867 703.065 452.765 703.687 474.146C704.302 495.527 715.925 502.796 721.233 502.541C726.541 502.286 758.09 492.292 758.51 496.658C758.93 501.025 739.531 514.082 726.482 513.981C726.482 513.981 749.461 542.53 766.238 535.658C783.016 528.786 785.134 516.463 795.579 512.405C806.024 508.347 814.712 508.868 810.232 513.365C805.752 517.861 789.289 519.988 782.868 529.947C776.447 539.912 775.979 543.768 793.017 542.21C810.054 540.652 830.844 534.088 832.879 519.994C834.903 505.9 834.903 505.9 834.903 505.9Z" fill="#00A3FE"/>
<path d="M720.766 475.71C720.766 475.71 815.587 477.588 834.903 505.894C834.903 505.894 838.715 520.018 852.201 533.466L854.065 539.639C854.065 539.639 838.679 521.375 832.874 519.988C832.874 519.994 844.005 486.972 720.766 475.71Z" fill="#016EB9"/>
<path d="M852.201 533.466C852.201 533.466 865.132 544.26 869.807 562.863L864.09 561.69C861.492 553.105 857.456 542.921 851.811 537.038C840.727 525.498 852.201 533.466 852.201 533.466Z" fill="#016EB9"/>
<path d="M844.828 449.299C844.828 449.299 786.88 448.411 789.377 403.339C789.377 403.339 794.774 373.569 809.687 358.604C809.687 358.604 827.429 414.216 837.561 410.27C847.692 406.325 813.327 349.73 813.327 349.73C813.327 349.73 848.017 301.826 867.369 293.662C867.369 293.662 864.895 358.669 873.742 352.348C882.595 346.027 888.306 278.502 888.306 278.502C888.306 278.502 931.554 243.613 954.64 267.951C977.731 292.288 972.961 313.277 966.807 318.905C960.652 324.534 914.653 348.64 919.044 353.936C923.435 359.232 959.409 352.058 973.731 337.413C973.731 337.413 980.057 394.594 953.864 405.691C927.666 416.787 911.623 405.519 895.561 412.669C879.494 419.82 870.47 430.075 880.424 430.057C890.377 430.045 914.972 413.138 933.152 417.006C951.331 420.875 964.937 421.953 944.366 439.21C923.796 456.468 880.666 475.953 862.747 462.629C844.828 449.299 844.828 449.299 844.828 449.299Z" fill="#00A3FE"/>
<path d="M937.507 288.727C937.507 288.727 834.72 396.467 844.828 449.3C844.828 449.3 856.314 469.17 856.35 499.07L861.155 507.98C861.155 507.98 857.865 470.639 862.741 462.629C862.747 462.623 813.717 438.499 937.507 288.727Z" fill="#016EB9"/>
<path d="M875.885 562.531C855.16 533.851 856.356 499.07 856.356 499.07C856.356 499.07 860.19 477.47 860.759 502.601C861.256 524.455 880.933 554.96 886.046 562.537H875.885V562.531Z" fill="#016EB9"/>
<path d="M174.027 514.864C174.027 514.864 156.894 496.024 172.062 483.281C172.062 483.281 183.205 476.065 192.472 476.35C192.472 476.35 180.021 498.75 184.329 500.811C188.638 502.873 196.408 474.851 196.408 474.851C196.408 474.851 222.151 471.575 230.578 475.319C230.578 475.319 209.042 494.064 213.723 495C218.405 495.936 241.715 477.475 241.715 477.475C241.715 477.475 265.866 480.852 265.025 495.562C264.185 510.278 256.036 515.053 252.385 514.775C248.734 514.496 227.204 506.996 226.826 509.994C226.453 512.992 239.555 522.364 248.544 522.554C248.544 522.554 232.158 541.766 220.742 536.707C209.321 531.647 208.102 523.116 200.988 520.119C193.875 517.121 187.88 517.305 190.881 520.492C193.875 523.679 206.675 526.481 210.901 533.466C215.126 540.451 218.872 545.143 207.167 543.733C195.467 542.329 176.275 534.361 175.151 524.615C174.026 514.864 174.027 514.864 174.027 514.864Z" fill="#016EB9"/>
<path d="M253.225 496.315C253.225 496.315 187.88 495.746 174.026 514.87C174.026 514.87 171.127 524.52 161.575 533.519L160.173 537.738C160.173 537.738 171.127 525.462 175.151 524.615C175.151 524.615 168.126 501.653 253.225 496.315Z" fill="#016EB9"/>
<path d="M161.575 533.514C161.575 533.514 147.875 544.302 147.455 562.868L150.006 563.022C150.006 563.022 153.906 543.727 161.771 535.99C169.63 528.253 161.575 533.514 161.575 533.514Z" fill="#016EB9"/>
<path d="M156.705 470.668C156.705 470.668 121.411 452.25 136.821 425.353C136.821 425.353 149.296 408.748 163.055 404.162C163.055 404.162 156.823 443.766 164.256 444.471C171.689 445.176 168.02 399.837 168.02 399.837C168.02 399.837 204.06 381.134 218.446 382.1C218.446 382.1 196.917 421.236 204.29 420.087C211.67 418.937 235.963 379.256 235.963 379.256C235.963 379.256 273.245 371.187 279.927 393.244C286.608 415.306 277.222 426.716 271.707 428.268C266.197 429.826 230.542 430.425 231.607 435.034C232.672 439.637 256.959 446.331 270.257 441.764C270.257 441.764 256.539 478.808 237.046 477.541C217.552 476.267 211.173 464.401 199.112 463.838C187.052 463.269 178.352 466.776 184.466 469.839C190.579 472.902 210.877 470.112 220.843 478.092C230.808 486.072 238.827 490.935 220.89 495.183C202.953 499.431 170.482 498.08 163.587 484.377C156.705 470.668 156.705 470.668 156.705 470.668Z" fill="#00A3FE"/>
<path d="M263.019 400.714C263.019 400.714 166.765 435.129 156.711 470.674C156.711 470.674 157.646 486.415 148.461 504.775L148.668 511.724C148.668 511.724 158.143 487.79 163.605 484.377C163.599 484.377 140.934 454.448 263.019 400.714Z" fill="#016EB9"/>
<path d="M148.461 504.769C148.461 504.769 137.176 535.623 146.55 563.099L150.373 561.95C150.373 561.95 142.697 523.892 150.077 508.294C157.462 492.695 148.461 504.769 148.461 504.769Z" fill="#016EB9"/>
<path d="M1.18949 564H997.337C997.994 564 998.526 563.461 998.526 562.809V562.252C998.526 561.595 997.988 561.062 997.337 561.062H1.18949C0.532607 561.062 0 561.601 0 562.252V562.809C0 563.461 0.538525 564 1.18949 564Z" fill="#131F2D"/>
<path d="M461.031 88.1359H545.135C556.184 88.1359 565.227 96.9454 565.227 107.71V138.706C565.227 143.623 563.333 148.131 560.232 151.579L565.227 173.831L536.413 158.28H461.031C449.982 158.28 440.94 149.47 440.94 138.706V107.71C440.94 96.9454 449.982 88.1359 461.031 88.1359Z" fill="#00A3FE"/>
<path d="M459.451 111.756H546.645C548.438 111.756 549.905 110.322 549.905 108.575C549.905 106.827 548.438 105.393 546.645 105.393H459.451C457.658 105.393 456.19 106.821 456.19 108.575C456.184 110.322 457.652 111.756 459.451 111.756Z" fill="white"/>
<path d="M459.451 125.666H546.645C548.438 125.666 549.905 124.239 549.905 122.485C549.905 120.737 548.438 119.304 546.645 119.304H459.451C457.658 119.304 456.19 120.731 456.19 122.485C456.184 124.239 457.652 125.666 459.451 125.666Z" fill="white"/>
<path d="M459.451 139.055H546.645C548.438 139.055 549.905 137.628 549.905 135.874C549.905 134.126 548.438 132.693 546.645 132.693H459.451C457.658 132.693 456.19 134.12 456.19 135.874C456.184 137.628 457.652 139.055 459.451 139.055Z" fill="white"/>
<path d="M460.806 181.515H392.259C383.252 181.515 375.885 188.695 375.885 197.469V222.73C375.885 226.741 377.429 230.414 379.956 233.222L375.885 251.357L399.367 238.679H460.806C469.813 238.679 477.181 231.498 477.181 222.724V197.463C477.181 188.695 469.813 181.515 460.806 181.515Z" fill="#00A3FE"/>
<path d="M462.102 200.769H391.034C389.573 200.769 388.377 199.602 388.377 198.18C388.377 196.752 389.573 195.591 391.034 195.591H462.096C463.558 195.591 464.753 196.758 464.753 198.18C464.759 199.602 463.564 200.769 462.102 200.769Z" fill="white"/>
<path d="M462.102 212.108H391.034C389.573 212.108 388.377 210.941 388.377 209.519C388.377 208.091 389.573 206.93 391.034 206.93H462.096C463.558 206.93 464.753 208.097 464.753 209.519C464.759 210.941 463.564 212.108 462.102 212.108Z" fill="white"/>
<rect x="477" y="563" width="101" height="84" fill="#D9D9D9"/>
</g>
<defs>
<clipPath id="clip0_4_48">
<rect width="1001" height="564" fill="white"/>
</clipPath>
</defs>
</svg>
