<svg width="873" height="546" viewBox="0 0 873 546" fill="none" xmlns="http://www.w3.org/2000/svg">
<path d="M831.96 544.737C782.031 544.737 54.7238 544.914 54.3024 543.614L54.2322 543.45C54.2322 543.45 54.162 543.29 54.162 543.209C53.8845 542.557 -57.9007 359.748 115.881 232.484C183.877 182.69 111.628 149.819 165.696 94.3843C227.837 30.682 295.652 101.151 364.749 72.2653C376.957 67.1669 389.21 58.9592 401.472 46.3652C408.374 39.2841 415.941 33.0891 424.04 27.7432C425.281 26.9208 426.535 26.1151 427.802 25.3361C432.651 22.3472 437.68 19.6425 442.86 17.212C446.338 15.5805 449.882 14.0727 453.494 12.6886H453.497C459.225 10.4887 465.111 8.58974 471.123 6.98498C479.66 4.70488 488.448 3.0065 497.41 1.85977C501.319 1.35494 505.262 0.960434 509.231 0.662885C586.44 -5.10423 673.326 27.3454 718.165 74.7728C727.193 84.3244 768.24 133.741 735.884 201.666C715.453 244.55 801.045 285.511 831.458 334.483C908.784 458.986 832.662 543.112 831.96 544.737Z" fill="#EAEAEA"/>
<g opacity="0.8">
<path d="M384.338 213.993C384.338 220.719 383.732 227.309 382.569 233.708C379.773 249.06 373.777 263.295 365.29 275.702C345.574 304.531 312.426 323.451 274.856 323.451C230.168 323.451 191.729 296.685 174.718 258.307C172.475 253.252 170.602 247.993 169.144 242.567C166.679 233.46 165.369 223.878 165.369 213.996C165.369 206.002 166.225 198.206 167.853 190.703C167.87 190.616 167.89 190.533 167.907 190.446C172.454 169.698 182.891 151.159 197.377 136.66C201.483 132.544 205.917 128.753 210.642 125.329C212.893 123.698 215.214 122.147 217.588 120.689C234.244 110.442 253.856 104.531 274.853 104.531C277.639 104.531 280.397 104.635 283.126 104.842C286.982 105.126 290.777 105.611 294.509 106.29C310.215 109.135 324.748 115.33 337.352 124.112H337.358C345.21 129.579 352.313 136.045 358.475 143.333C361.712 147.161 364.695 151.213 367.387 155.466C369.062 158.113 370.631 160.831 372.085 163.63C375.576 170.346 378.382 177.471 380.429 184.913C382.977 194.167 384.338 203.923 384.338 213.993Z" fill="#016EB9"/>
<path d="M237.658 164.994C233.288 171.911 239.484 183.923 226.376 180.647C213.267 177.371 205.259 175.913 204.53 183.191C203.797 190.476 214.361 190.476 214.361 198.119C214.361 205.761 209.626 208.292 202.346 204.661C195.06 201.031 192.97 195.752 184.503 199.028C176.039 202.305 171.124 200.121 169.211 193.569C168.873 192.415 168.402 191.482 167.85 190.703C167.867 190.616 167.887 190.533 167.903 190.446C172.451 169.698 182.888 151.159 197.374 136.66C201.48 132.544 205.914 128.753 210.639 125.329C212.89 123.698 215.21 122.147 217.585 120.689C220.999 120.816 225.078 122.11 228.556 126.413C236.2 135.881 241.297 131.147 239.477 142.066C237.652 152.985 240.571 154.442 246.757 154.078C252.944 153.714 260.23 153.714 260.956 158.448C261.688 163.175 242.029 158.077 237.658 164.994Z" fill="#00A3FE"/>
<path d="M238.424 215.544C238.424 215.544 231.816 223.223 226.122 218.813C220.427 214.404 222.149 211.642 213.809 214.407C205.469 217.172 201.801 212.588 197.527 216.062C193.254 219.536 196.722 219.97 193.766 227.335C190.809 234.701 184.7 235.881 189.422 243.236C194.143 250.588 202.928 246.807 207.556 250.695C212.184 254.583 210.673 258.391 216.451 259.972C222.226 261.557 227.747 255.93 227.86 262.904C227.974 269.878 225.744 276.692 232.927 283.178C240.106 289.664 238.762 291.128 246.145 294.287C253.529 297.447 262.353 294.598 261.233 290.162C260.113 285.725 250.599 284.833 250.409 279.824C250.222 274.816 255.281 275.234 253.254 268.795C251.225 262.353 256.889 258.879 254.977 254.717C253.064 250.551 242.153 249.127 243.423 244.931C244.694 240.735 254.562 244.292 255.104 235.423C255.642 226.553 249.65 223.394 250.533 214.741C251.415 206.086 239.434 210.228 238.424 215.544Z" fill="#2FB1FA"/>
<path d="M384.338 213.993C384.338 220.719 383.732 227.309 382.569 233.708C379.773 249.06 373.777 263.295 365.29 275.702C362.395 276.652 359.442 276.632 356.536 275.468C342.883 270.009 352.985 255.265 358.449 247.893C363.909 240.521 349.985 243.798 339.88 236.974C329.778 230.15 340.973 211.856 330.597 214.862C320.221 217.864 307.661 221.685 301.652 211.585C295.646 201.485 307.112 199.847 301.926 191.382C296.736 182.92 304.929 178.006 315.305 177.187C325.681 176.368 324.317 168.996 337.151 167.906C349.985 166.813 349.711 183.194 363.913 182.101C378.111 181.008 377.472 184.284 377.472 184.284C378.492 184.258 379.489 184.472 380.439 184.906C382.977 194.167 384.338 203.923 384.338 213.993Z" fill="#AEC3FF"/>
<path d="M372.089 163.623C360.281 169.367 355.543 153.747 345.447 158.441C335.272 163.175 337.054 154.071 329.049 148.247C321.036 142.427 305.019 152.981 305.745 143.878C306.47 134.781 318.485 137.325 321.036 130.047C323.588 122.769 335.235 124.587 335.235 124.587C335.897 124.337 336.606 124.173 337.355 124.106C337.355 124.106 337.355 124.099 337.362 124.106C345.213 129.572 352.316 136.038 358.479 143.326C361.716 147.154 364.699 151.206 367.39 155.459C369.066 158.107 370.634 160.828 372.089 163.623Z" fill="#2FB1FA"/>
<path d="M272.613 132.233C272.613 132.233 278.802 123.303 268.971 120.672C259.14 118.038 259.324 121.485 251.676 120.672C244.032 119.86 241.026 125.774 246.761 132.233C252.495 138.696 257.137 151.093 262.327 144.483C267.513 137.873 266.513 132.868 272.613 132.233Z" fill="#2FB1FA"/>
</g>
<path d="M406.602 331.949L389.832 531.297C389.832 531.297 388.076 543.38 397.065 543.403C411.848 543.44 470.642 543.403 470.642 543.403C470.642 543.403 459.517 540.889 459.65 535.229C459.807 528.556 479.249 330.064 479.249 330.064L406.602 331.949Z" fill="#7599EA"/>
<path d="M476.176 539.866C473.27 539.876 416.349 539.97 401.954 539.786C395.68 539.709 394.58 534.209 394.527 530.649C394.5 528.944 394.717 527.68 394.717 527.68L395.152 522.498L396.262 509.292L397.245 497.624L398.506 482.633L399.569 469.979L411.484 328.328L484.135 326.443C484.135 326.443 475.945 409.513 470.154 469.979C469.508 476.715 468.893 483.175 468.324 489.206C468.141 491.131 467.963 493.014 467.789 494.846C467.251 500.566 466.763 505.822 466.335 510.459C466.111 512.903 465.903 515.176 465.713 517.256C464.974 525.41 464.542 530.619 464.536 531.608C464.532 532.187 464.583 532.721 464.676 533.223C465.873 539.579 475.086 539.866 476.176 539.866Z" fill="#90AFF4"/>
<path d="M230.171 223.471L271.018 387.511L276.609 409.974L295.632 486.381H649.079L578.959 223.471H230.171Z" fill="#AEC3FF"/>
<path d="M230.168 223.471L224.507 225.356L288.109 492.088L295.636 486.381L230.168 223.471Z" fill="#90AFF4"/>
<path d="M288.109 492.088H639.378L649.079 486.381H295.636L288.109 492.088Z" fill="#7599EA"/>
<path d="M411.464 543.479H487.519V539.865H411.464V543.479Z" fill="#AEC3FF"/>
<path d="M468.184 492.088L467.793 494.849L396.266 509.295L397.249 497.627L397.717 492.088H468.184Z" fill="#5888DD"/>
<path opacity="0.4" d="M476.176 539.866C473.27 539.876 416.349 539.97 401.954 539.786C395.68 539.709 394.58 534.209 394.527 530.649L465.716 517.259C464.977 525.413 464.546 530.622 464.539 531.612C464.536 532.19 464.586 532.725 464.679 533.226C465.873 539.579 475.086 539.866 476.176 539.866Z" fill="#5888DD"/>
<path d="M230.168 223.471H578.959L635.549 434.768H282.782L230.168 223.471Z" fill="#C2D5FF"/>
<path d="M619.1 425.61H292.526L280.856 379.132L276.341 361.146L274.502 353.814L262.507 306.049L261.885 303.562L255.545 278.313L252.71 267.017L250.289 257.378L244.617 234.788H566.48L572.709 257.378L575.368 267.017L578.481 278.313L599.003 352.737V352.741L600.742 359.046L601.551 361.975L615.719 413.354L619.1 425.61Z" fill="#739AF0"/>
<path d="M572.709 257.381H250.289L244.617 234.788H566.483L572.709 257.381Z" fill="#2F539B"/>
<path d="M257.933 244.998C257.545 243.437 258.494 242.173 260.053 242.173C261.614 242.173 263.193 243.437 263.581 244.998C263.969 246.559 263.019 247.823 261.461 247.823C259.902 247.823 258.321 246.559 257.933 244.998Z" fill="#E9F3FE"/>
<path d="M267.319 244.998C266.931 243.437 267.881 242.173 269.439 242.173C271.001 242.173 272.579 243.437 272.967 244.998C273.355 246.559 272.405 247.823 270.847 247.823C269.289 247.823 267.707 246.559 267.319 244.998Z" fill="#E9F3FE"/>
<path d="M277.425 244.998C277.037 243.437 277.986 242.173 279.545 242.173C281.106 242.173 282.685 243.437 283.073 244.998C283.46 246.559 282.511 247.823 280.952 247.823C279.394 247.823 277.813 246.559 277.425 244.998Z" fill="#E9F3FE"/>
<path opacity="0.5" d="M415.296 434.768L295.753 486.996L282.782 434.768H415.296Z" fill="#90AFF4"/>
<path d="M311.349 168.738C305.587 170.895 301.869 175.876 301.869 181.366V303.224C301.869 328.155 313.706 351.504 333.55 365.716L405.15 411.592C409.909 414.645 416.379 414.645 421.158 411.592L492.755 365.716C512.598 351.504 524.436 328.155 524.436 303.224V181.69C524.436 176.037 520.483 170.948 514.484 168.892C427.508 139.124 392.641 138.328 311.349 168.738Z" fill="#723D92"/>
<path d="M514.484 168.892C472.146 154.399 442.158 146.796 413.152 146.295V413.879C415.965 413.879 418.757 413.117 421.154 411.589L492.752 365.713C512.595 351.501 524.433 328.151 524.433 303.221V181.687C524.433 176.037 520.48 170.948 514.484 168.892Z" fill="#642788"/>
<path d="M420.442 277.384H404.157C389.554 277.384 377.67 265.505 377.67 250.902V247.736C377.67 233.133 389.551 221.251 404.157 221.251H420.442C435.049 221.251 446.933 233.129 446.933 247.736V250.902C446.93 265.505 435.049 277.384 420.442 277.384ZM404.157 231.842C395.393 231.842 388.263 238.97 388.263 247.736V250.902C388.263 259.665 395.393 266.793 404.157 266.793H420.442C429.21 266.793 436.339 259.665 436.339 250.902V247.736C436.339 238.97 429.21 231.842 420.442 231.842H404.157Z" fill="#FFDAA4"/>
<path d="M427.334 351.35H401.609C377.546 351.35 358.037 331.846 358.037 307.787V265.285C358.037 259.902 362.401 255.542 367.782 255.542H455.781C462.676 255.542 468.264 261.129 468.264 268.023V310.425C468.264 333.029 449.939 351.35 427.334 351.35Z" fill="#FFDAA4"/>
<path d="M417.896 297.844C425.386 295.218 429.328 287.018 426.7 279.529C424.073 272.041 415.871 268.1 408.381 270.727C400.891 273.353 396.949 281.553 399.577 289.042C402.204 296.53 410.406 300.471 417.896 297.844Z" fill="#723D92"/>
<path d="M413.153 290.998C414.865 290.998 416.266 292.398 416.266 294.11V318.058C416.266 319.77 414.865 321.17 413.153 321.17C411.44 321.17 410.039 319.77 410.039 318.058V294.11C410.039 292.398 411.44 290.998 413.153 290.998Z" fill="#723D92"/>
<path d="M576.565 95.5979C574.987 96.1863 573.97 97.5503 573.97 99.0548V132.407C573.97 139.231 577.211 145.62 582.641 149.511L602.237 162.068C603.537 162.904 605.31 162.904 606.617 162.068L626.213 149.511C631.643 145.62 634.884 139.231 634.884 132.407V99.1451C634.884 97.5972 633.8 96.2064 632.162 95.6414C608.359 87.4905 598.816 87.2732 576.565 95.5979Z" fill="#723D92"/>
<path opacity="0.4" d="M632.165 95.6414C620.578 91.6763 612.369 89.5934 604.43 89.4563V162.694C605.2 162.694 605.965 162.486 606.621 162.068L626.216 149.511C631.647 145.62 634.887 139.231 634.887 132.407V99.1417C634.887 97.5938 633.807 96.203 632.165 95.6414Z" fill="#642788"/>
<path d="M607.848 54.1248L615.542 55.1378L610.058 60.6275L611.476 68.2568L604.557 64.7397L597.739 68.444L598.946 60.7779L593.315 55.4387L600.979 54.2185L604.32 47.2143L607.848 54.1248Z" fill="#F99746"/>
<path d="M607.848 186.678L615.542 187.691L610.058 193.181L611.476 200.81L604.557 197.293L597.739 200.997L598.946 193.331L593.315 187.992L600.979 186.772L604.32 179.768L607.848 186.678Z" fill="#F99746"/>
<path d="M551.191 86.6747L558.885 87.6878L553.401 93.1774L554.816 100.807L547.901 97.2896L541.079 100.994L542.289 93.3278L536.658 87.9887L544.323 86.7684L547.66 79.7643L551.191 86.6747Z" fill="#F99746"/>
<path d="M665.294 86.6747L672.985 87.6878L667.504 93.1774L668.918 100.807L662.003 97.2896L655.181 100.994L656.392 93.3278L650.761 87.9887L658.425 86.7684L661.762 79.7643L665.294 86.6747Z" fill="#F99746"/>
<path d="M551.191 154.523L558.885 155.532L553.401 161.022L554.816 168.651L547.901 165.134L541.079 168.839L542.289 161.172L536.658 155.833L544.323 154.613L547.66 147.612L551.191 154.523Z" fill="#F99746"/>
<path d="M665.294 154.523L672.985 155.532L667.504 161.022L668.918 168.651L662.003 165.134L655.181 168.839L656.392 161.172L650.761 155.833L658.425 154.613L661.762 147.612L665.294 154.523Z" fill="#F99746"/>
<path d="M575.753 62.8842L583.447 63.8972L577.963 69.3868L579.381 77.0128L572.462 73.499L565.644 77.2L566.851 69.5372L561.22 64.1981L568.884 62.9778L572.225 55.9737L575.753 62.8842Z" fill="#F99746"/>
<path d="M641.618 62.8842L649.313 63.8972L643.829 69.3868L645.243 77.0128L638.328 73.499L631.509 77.2L632.717 69.5372L627.085 64.1981L634.75 62.9778L638.09 55.9737L641.618 62.8842Z" fill="#F99746"/>
<path d="M575.753 178.16L583.447 179.173L577.963 184.662L579.381 192.291L572.462 188.774L565.644 192.479L566.851 184.813L561.22 179.473L568.884 178.253L572.225 171.249L575.753 178.16Z" fill="#F99746"/>
<path d="M641.618 178.16L649.313 179.173L643.829 184.662L645.243 192.291L638.328 188.774L631.509 192.479L632.717 184.813L627.085 179.473L634.75 178.253L638.09 171.249L641.618 178.16Z" fill="#F99746"/>
<path d="M542.126 122.364L549.817 123.374L544.336 128.867L545.75 136.493L538.835 132.975L532.013 136.68L533.224 129.017L527.593 123.678L535.257 122.458L538.594 115.453L542.126 122.364Z" fill="#F99746"/>
<path d="M676.406 122.364L684.1 123.374L678.616 128.867L680.034 136.493L673.115 132.975L666.297 136.68L667.504 129.017L661.873 123.678L669.537 122.458L672.878 115.453L676.406 122.364Z" fill="#F99746"/>
<path d="M128.786 307.66C129.07 307.941 129.073 308.403 128.789 308.69C128.505 308.974 128.047 308.978 127.759 308.693C127.475 308.413 127.471 307.951 127.756 307.664C128.04 307.38 128.501 307.376 128.786 307.66Z" fill="#D5E5FB"/>
<path d="M126.418 310.048C126.702 310.332 126.706 310.79 126.421 311.077C126.137 311.361 125.679 311.365 125.395 311.081C125.111 310.796 125.107 310.338 125.391 310.051C125.672 309.77 126.134 309.767 126.418 310.048Z" fill="#D5E5FB"/>
<path d="M122.99 312.475C123.275 312.191 123.733 312.187 124.017 312.471C124.301 312.752 124.305 313.214 124.02 313.501C123.736 313.785 123.278 313.789 122.99 313.504C122.71 313.22 122.71 312.759 122.99 312.475Z" fill="#D5E5FB"/>
<path d="M121.62 314.892C121.904 315.173 121.907 315.634 121.623 315.922C121.339 316.206 120.881 316.209 120.593 315.925C120.309 315.644 120.305 315.183 120.59 314.899C120.874 314.611 121.335 314.608 121.62 314.892Z" fill="#D5E5FB"/>
<path d="M119.252 317.282C119.536 317.566 119.54 318.025 119.255 318.312C118.971 318.596 118.513 318.6 118.229 318.315C117.945 318.031 117.941 317.573 118.225 317.286C118.506 317.001 118.968 316.998 119.252 317.282Z" fill="#D5E5FB"/>
<path d="M115.824 319.706C116.109 319.422 116.567 319.419 116.851 319.703C117.135 319.987 117.139 320.445 116.854 320.733C116.57 321.017 116.112 321.02 115.824 320.736C115.544 320.452 115.54 319.994 115.824 319.706Z" fill="#D5E5FB"/>
<path d="M114.551 322.026C114.835 322.307 114.838 322.769 114.554 323.056C114.27 323.34 113.812 323.344 113.524 323.059C113.24 322.779 113.236 322.317 113.521 322.033C113.805 321.746 114.263 321.746 114.551 322.026Z" fill="#D5E5FB"/>
<path d="M112.183 324.417C112.467 324.701 112.471 325.159 112.186 325.447C111.902 325.731 111.444 325.734 111.16 325.45C110.875 325.166 110.872 324.708 111.156 324.42C111.437 324.136 111.895 324.133 112.183 324.417Z" fill="#D5E5FB"/>
<path d="M108.755 326.841C109.036 326.556 109.498 326.553 109.782 326.837C110.066 327.121 110.07 327.58 109.785 327.867C109.505 328.151 109.043 328.155 108.759 327.87C108.475 327.586 108.471 327.128 108.755 326.841Z" fill="#D5E5FB"/>
<path d="M107.385 329.258C107.669 329.539 107.672 330 107.388 330.288C107.104 330.572 106.646 330.575 106.358 330.291C106.074 330.007 106.07 329.549 106.355 329.261C106.639 328.977 107.097 328.977 107.385 329.258Z" fill="#D5E5FB"/>
<path d="M105.017 331.648C105.301 331.929 105.304 332.39 105.02 332.675C104.736 332.959 104.278 332.962 103.994 332.678C103.709 332.397 103.706 331.936 103.99 331.648C104.271 331.367 104.729 331.364 105.017 331.648Z" fill="#D5E5FB"/>
<path d="M101.589 334.075C101.874 333.791 102.332 333.788 102.616 334.072C102.9 334.356 102.904 334.814 102.619 335.102C102.335 335.386 101.877 335.389 101.589 335.105C101.308 334.821 101.305 334.36 101.589 334.075Z" fill="#D5E5FB"/>
<path d="M161.521 294.18C162.945 285.54 157.095 277.383 148.454 275.959C139.812 274.535 131.653 280.385 130.229 289.024C128.805 297.663 134.656 305.821 143.297 307.245C151.938 308.668 160.097 302.819 161.521 294.18Z" fill="#723D92"/>
<path d="M140.781 285.237C140.781 282.426 143.058 280.149 145.87 280.149C148.679 280.149 150.96 282.426 150.96 285.237C150.96 288.046 148.682 290.326 145.87 290.326C143.061 290.326 140.781 288.046 140.781 285.237Z" fill="#EBF3FA"/>
<path d="M145.87 290.326C140.951 290.326 136.965 294.311 136.965 299.229H154.778C154.778 294.311 150.789 290.326 145.87 290.326Z" fill="#EBF3FA"/>
<path d="M88.4644 340.518L87.8758 339.064C87.2472 337.502 85.7324 336.483 84.0503 336.483H73.2092V343.36V372.717H118.048V343.36H92.6744C90.8219 343.36 89.1566 342.236 88.4644 340.518Z" fill="#723D92"/>
<path d="M102.335 353.025H100.837C100.881 352.781 100.904 352.53 100.904 352.276V351.765C100.904 349.404 98.9812 347.482 96.6204 347.482H93.9853C91.6245 347.482 89.7017 349.404 89.7017 351.765V352.276C89.7017 352.53 89.7251 352.781 89.7686 353.025H88.1033C87.2339 353.025 86.5283 353.73 86.5283 354.603V361.477C86.5283 365.368 89.6817 368.521 93.574 368.521H97.7339C101.392 368.521 104.355 365.559 104.355 361.901V355.044C104.355 353.931 103.452 353.025 102.335 353.025ZM95.9449 359.946V363.138C95.9449 363.416 95.7175 363.64 95.44 363.64C95.1624 363.64 94.935 363.412 94.935 363.138V359.946C93.8951 359.715 93.1159 358.789 93.1159 357.679C93.1159 356.395 94.1559 355.355 95.44 355.355C96.724 355.355 97.764 356.395 97.764 357.679C97.7674 358.789 96.9882 359.715 95.9449 359.946ZM99.1919 352.276C99.1919 352.537 99.1517 352.788 99.0815 353.025H91.5309C91.4573 352.788 91.4172 352.537 91.4172 352.276V351.765C91.4172 350.347 92.5708 349.194 93.9887 349.194H96.6237C98.0416 349.194 99.1952 350.347 99.1952 351.765V352.276H99.1919Z" fill="#EBF3FA"/>
<path d="M219.852 337.703C219.852 337.703 220.698 328.479 210.388 328.479C210.388 328.479 213.512 329.325 215.13 331.02C215.13 331.02 208.556 327.162 201.4 333.093C194.244 339.023 198.691 353.898 196.514 356.719C194.337 359.544 185.864 360.109 186.9 369.24C187.937 378.37 213.796 389.807 212.134 397.363C212.134 397.363 222.266 382.469 215.02 375.672C215.02 375.672 218.551 378.999 218.912 382.954C218.912 382.954 219.872 375.234 214.956 372.767C210.609 370.58 207.048 362.59 207.422 361.162C207.8 359.728 219.852 337.703 219.852 337.703Z" fill="#2C3A64"/>
<path d="M209.703 381.994C209.703 381.994 217.404 413.852 224.965 420.221C229.509 424.049 243.022 432.835 243.022 432.835L237.401 434.875C237.401 434.875 218.658 428.546 214.461 423.614C210.265 418.683 198.778 393.967 198.778 393.967L209.703 381.994Z" fill="#FFB27D"/>
<path d="M254.174 444.476L252.365 439.996C250.426 435.192 245.761 432.046 240.578 432.046H207.188V453.229V543.664H345.314V453.229H267.145C261.441 453.229 256.308 449.765 254.174 444.476Z" fill="#723D92"/>
<path d="M137.313 437.964C137.38 438.084 137.453 438.211 137.524 438.338C139.209 441.267 143.075 448.445 147.335 456.298C149.348 460.026 151.458 463.904 153.458 467.552C156.905 473.85 160.042 479.46 161.871 482.426C163.734 485.441 165.101 487.558 165.656 488.403C165.66 488.407 165.66 488.407 165.66 488.407C165.827 488.667 165.864 488.975 165.84 489.279C165.646 491.937 165.7 494.578 165.961 497.176C168.529 522.729 185.764 536.419 185.764 536.419L190.886 537.175C190.886 537.175 183.637 510.318 181.5 495.133C181.139 492.559 180.982 490.473 181.109 489.115C181.487 485.16 180.784 479.353 179.453 472.683C177.086 460.835 172.749 446.288 168.977 434.647C168.739 433.905 161.533 407.844 161.533 407.844C155.484 413.13 133.427 415.31 133.427 415.31C133.427 415.31 129.689 424.407 137.313 437.964Z" fill="#2F539B"/>
<path d="M201.644 543.664H180.259C180.259 543.664 179.748 540.404 180.865 537.934C181.935 535.56 183.459 535.486 181.059 531.769C182.416 533.166 186.787 533.748 189.877 533.33C190.254 533.945 192.318 538.064 193.585 538.973C194.983 539.973 201.213 539.615 201.644 543.664Z" fill="#233862"/>
<path d="M137.313 437.964C137.38 438.084 137.453 438.211 137.524 438.338C139.209 441.267 148.325 458.1 152.581 465.953C147.646 445.657 151.08 425.36 151.08 425.36L137.313 437.964Z" fill="#233862"/>
<path d="M216.936 336.406C217.076 335.844 204.72 341.989 204.095 342.681C198.3 349.107 199.952 357.492 203.269 357.572C205.396 357.625 204.985 361.159 204.985 361.159L228.67 351.143C228.67 351.139 225.817 334.513 216.936 336.406Z" fill="#131F2D"/>
<path d="M208.974 377.21C208.974 377.21 212.579 384.408 212.127 390.252C212.127 390.252 207.78 397.112 196.508 398.848C196.511 398.848 206.202 377.207 208.974 377.21Z" fill="#2B3444"/>
<path d="M153.983 416.908L154.056 412.909C146.088 413.912 126.579 403.388 126.579 403.388C126.579 403.388 118.242 408.931 117.102 424.765C116.544 432.491 113.023 465.171 112.631 474.93C112.488 478.467 112.441 480.991 112.427 482.001C112.431 482.008 112.427 482.008 112.427 482.011C112.424 482.319 112.277 482.589 112.09 482.833C110.441 484.93 109.01 487.15 107.773 489.45C95.6139 512.07 101.971 542.805 101.971 542.805L104.793 542.086C104.793 542.086 115.076 510.225 121.794 496.441C122.934 494.104 123.971 492.285 124.837 491.232C127.365 488.163 130.027 482.954 132.655 476.682C137.617 464.83 153.983 416.908 153.983 416.908Z" fill="#2F539B"/>
<path d="M118.975 543.664H97.5901C97.5901 543.664 97.0785 540.404 98.1954 537.934C99.2654 535.56 100.941 534.483 100.539 531.612C101.897 533.009 104.114 534.577 107.204 534.162C107.582 534.778 109.648 538.064 110.916 538.97C112.314 539.973 118.543 539.615 118.975 543.664Z" fill="#233862"/>
<path d="M195.066 403.441C192.194 403.929 195.535 406.213 191.585 406.644C185.961 407.259 180.156 407.677 177.116 408.891C176.006 409.332 175.264 409.88 175.033 410.579C173.715 414.541 165.365 421.351 165.365 421.351C128.127 419.656 125.729 403.064 125.729 403.064C149.896 379.597 170.458 366.806 187.449 365.221C191.585 364.837 197.16 365.355 199.775 366.518C205.717 369.163 208.974 377.213 208.974 377.213C208.974 377.213 205.981 401.579 195.066 403.441Z" fill="#364154"/>
<path d="M191.585 406.641C185.961 407.256 180.156 407.674 177.116 408.887C175.872 390.319 184.637 376.354 184.637 376.354C184.637 376.354 190.355 399.617 191.585 406.641Z" fill="#2B3444"/>
<path d="M196.437 373.212C196.437 373.212 182.296 372.439 179.784 381.316C177.273 390.192 184.499 425.62 186.054 429.278C188.89 435.934 203.185 455.763 203.185 455.763L207.767 453.389C207.767 453.389 198.564 424.363 196.508 421.491C193.284 416.981 200.671 377.073 196.437 373.212Z" fill="#FFB27D"/>
<path d="M207.77 453.389C207.77 453.389 208.954 454.419 209.904 455.579C210.853 456.743 210.017 457.161 212.749 462.423C212.749 462.423 212.609 463.155 212.017 463.021C211.425 462.888 209.362 460.848 208.305 460.995C208.305 460.995 207.549 461.617 207.466 463.68C207.389 465.609 207.382 469.875 207.048 470.677C206.713 471.48 204.259 467.317 203.048 464.309C201.988 461.671 203.022 452.774 203.022 452.774L207.77 453.389Z" fill="#FFB27D"/>
<path d="M176.996 393.184C177.032 393.391 190.378 395.638 198.725 391.402C198.725 391.402 205.697 369.561 195.732 370.607C185.767 371.654 179.868 374.79 179.614 379.56C179.363 384.331 176.996 393.184 176.996 393.184Z" fill="#364154"/>
<path d="M199.457 368.046C199.601 369.815 199.828 371.884 202.142 374.265C203.914 376.09 206.476 377.514 208.275 375.716C209.191 374.8 210.432 373.432 211.057 372.356C212.612 369.684 214.465 366.953 214.465 366.953L206.463 359.942L205.984 359.524C203.888 363.185 201.828 364.944 200.022 366.288C199.474 366.692 199.4 367.368 199.457 368.046Z" fill="#FFB27D"/>
<path d="M214.461 366.956C214.461 366.956 212.612 369.681 211.057 372.356C206.081 369.29 206.078 363.132 206.459 359.942L214.461 366.956Z" fill="#ED985F"/>
<path d="M214.685 370.467C214.685 370.467 202.607 363.747 206.907 356.291C211.208 348.836 212.545 342.945 220.44 346.92C228.335 350.895 228.178 354.596 227.349 357.435C226.516 360.273 217.939 372.025 214.685 370.467Z" fill="#FFB27D"/>
<path d="M229.389 353.089C228.837 349.779 227.155 349.461 225.981 349.682C221.521 342.307 214.234 345.185 214.234 345.185C210.342 350.07 204.714 350.902 204.714 350.902C204.714 350.902 206.115 353.51 211.89 355.125C213.656 355.616 215.655 355.318 217.588 354.67C213.582 356.903 209.392 357.759 209.392 357.759C217.003 358.454 224.243 351.501 224.995 350.755C225.346 351.831 225.961 354.088 225.594 355.74C225.092 357.983 223.102 362.042 224.316 362.57C224.313 362.567 230.218 358.053 229.389 353.089Z" fill="#2C3A64"/>
<path d="M245.233 432.849C245.233 432.849 241.862 435.376 244.403 437.028C246.945 438.679 251.479 439.127 251.496 438.044C251.559 434.406 249.744 431.815 245.233 432.849Z" fill="#FFB27D"/>
<path d="M296.134 482.86H291.78C291.908 482.151 291.978 481.426 291.978 480.684V479.196C291.978 472.336 286.397 466.756 279.535 466.756H271.887C265.025 466.756 259.448 472.336 259.448 479.196V480.684C259.448 481.426 259.515 482.151 259.642 482.86H254.803C252.275 482.86 250.225 484.91 250.225 487.441V507.406C250.225 518.707 259.388 527.867 270.69 527.867H282.772C293.392 527.867 302 519.262 302 508.643V488.728C301.996 485.485 299.375 482.86 296.134 482.86ZM277.572 502.953V512.227C277.572 513.03 276.913 513.688 276.107 513.688C275.301 513.688 274.643 513.03 274.643 512.227V502.953C271.616 502.285 269.356 499.593 269.356 496.364C269.356 492.636 272.379 489.614 276.107 489.614C279.836 489.614 282.859 492.636 282.859 496.364C282.862 499.593 280.598 502.285 277.572 502.953ZM287.002 480.684C287.002 481.439 286.888 482.172 286.678 482.86H264.745C264.534 482.172 264.417 481.439 264.417 480.684V479.196C264.417 475.077 267.767 471.731 271.884 471.731H279.532C283.651 471.731 286.999 475.08 286.999 479.196V480.684H287.002Z" fill="#FFDAA4"/>
<path d="M807.251 543.861L639.592 543.858C616.218 517.002 617.184 484.305 649.079 454.613C654.803 449.284 664.799 443.547 672.868 441.621C687.741 438.074 704.608 437.258 704.739 437.188C704.789 437.168 723.488 434.567 728.822 428.078C745.391 407.931 749.651 405.046 749.651 405.046C766.542 401.746 780.948 400.777 791.628 406.748C791.628 406.751 791.628 406.751 791.632 406.754C801.526 412.294 808.224 423.795 810.732 444.934C811.207 448.93 811.535 453.272 811.702 457.983C812.314 475.137 815.681 490.396 817.681 503.318C817.684 503.318 817.684 503.321 817.684 503.321C820.58 522.04 822.627 536.272 807.251 543.861Z" fill="#016EB9"/>
<path d="M783.262 428.181C773.012 433.761 771.879 452.149 755.841 456.897C739.8 461.647 712.574 461.213 697.128 477.962C682.227 494.124 665.795 453.008 672.871 441.444C687.745 437.914 704.612 437.101 704.742 437.028C704.792 437.008 727.618 436.917 732.952 430.458C749.521 410.402 749.655 405.033 749.655 405.033C766.545 401.746 780.951 400.783 791.631 406.724C791.631 406.728 791.631 406.728 791.635 406.731C803.399 418.89 793.511 422.601 783.262 428.181Z" fill="#185E8D"/>
<path d="M817.681 502.856C794.16 473.502 745.839 513.518 733.336 512.391C721.84 511.351 755.754 471.232 797.811 465.261C814.812 462.848 810.739 445.282 810.732 444.74C811.207 448.719 811.535 453.042 811.702 457.732C812.314 474.806 815.681 489.995 817.681 502.856Z" fill="#185E8D"/>
<path d="M686.498 518.837C684.852 522.006 684.481 527.837 683.993 529.816C683.505 531.792 674.884 538.515 674.145 538.178C672.259 537.329 674.061 534.042 675.212 531.642C675.258 531.545 675.302 531.448 675.349 531.354C676.486 528.934 675.509 523.534 676.094 520.746C676.683 517.958 673.854 510.449 673.854 510.449L678.616 504.434C678.616 504.434 681.963 510.8 684.357 511.96C684.779 512.167 685.173 512.415 685.524 512.702C687.146 514.043 687.848 516.229 686.498 518.837Z" fill="#FFB27D"/>
<path d="M750.317 358.902C745.726 359.287 741.442 361.35 738.115 364.536C736.011 366.552 733.677 369.307 732.236 372.596C729.096 379.764 730.176 388.102 728.381 392.679C726.585 397.256 725.508 398.052 728.381 400.125C731.253 402.198 731.734 404.17 728.3 406.367C724.866 408.563 722.331 415.407 731.912 416.002C741.492 416.597 760.061 413.12 762.449 411.348C764.836 409.579 771.357 406.945 774.48 402.204C780.73 392.733 775.751 386.367 770.926 384.763C763.576 382.322 766.278 357.565 750.317 358.902Z" fill="#163560"/>
<path d="M737.737 398.583C737.737 398.583 728.24 420.02 726.261 421.886C724.281 423.752 715.015 427.392 715.847 430.515C716.68 433.638 723.656 436.656 726.572 435.928C729.487 435.199 736.878 422.605 736.878 422.605L737.737 398.583Z" fill="#00A3FE"/>
<path d="M716.623 432.39C716.623 432.39 717.138 428.703 726.137 427.513C731.133 426.854 739.489 412.923 739.489 412.923L731.133 434.885L723.034 438.385L716.623 432.39Z" fill="#1B8DCC"/>
<path d="M720.281 439.321C720.281 439.321 673.403 436.041 666.979 443.48C661.883 449.381 671.162 513.859 671.162 513.859C671.162 513.859 683.919 514.23 684.922 510.853C684.922 510.853 682.542 479.55 684.535 474.138C686.528 468.725 685.267 461.233 685.267 461.233C685.267 461.233 710.226 464.97 718.145 463.075C726.067 461.176 720.281 439.321 720.281 439.321Z" fill="#2B3444"/>
<path d="M669.758 537.409C666.457 538.769 662.411 542.985 660.762 544.182C659.114 545.379 648.189 544.951 647.841 544.219C646.915 542.28 650.734 540.899 653.162 539.782C653.198 539.766 653.232 539.749 653.269 539.732L653.275 539.726C655.676 538.519 658.361 533.882 660.579 532.156C662.826 530.405 665.511 522.846 665.511 522.846L673.028 521.321C673.028 521.321 671.48 528.345 672.56 530.772C672.66 531.003 672.747 531.234 672.817 531.468C673.51 533.724 672.751 536.175 669.758 537.409Z" fill="#FFB27D"/>
<path d="M740.887 441.608C740.887 441.608 689.738 446.803 685.243 452.022C680.749 457.241 663.076 525.112 663.076 525.112C663.076 525.112 668.296 528.021 673.041 525.303C673.041 525.303 686.574 502.278 692.563 495.05C698.549 487.822 700.679 468.942 703.873 466.913C704.729 466.368 734.821 469.751 745.859 461.283C756.894 452.818 740.887 441.608 740.887 441.608Z" fill="#364154"/>
<path d="M763.188 441.701C761.874 444.222 760.442 446.586 758.918 448.716C755.089 454.051 750.655 457.889 745.853 458.886C738.874 460.333 715.483 446.76 716.667 439.271C717.309 435.195 730.31 427.87 732.407 424.912C734.5 421.956 735.764 407.132 736.881 401.081C737.714 396.578 740.506 396.109 743.997 394.913C758.821 389.834 769.374 395.207 769.374 395.207C776.156 399.025 772.384 424.109 763.188 441.701Z" fill="#00A3FE"/>
<path d="M762.472 379.781C762.472 379.781 763.268 376.147 763.586 372.265C763.813 369.494 759.603 360.46 753.066 360.835C753.066 360.835 750.143 361.403 747.548 363.536C745.485 365.231 742.603 368.745 746.993 377.227L748.197 380.119L762.472 379.781Z" fill="#163560"/>
<path d="M749.224 394.381C749.438 395.929 750.815 396.812 753.885 396.614C756.995 396.414 761.406 394.532 761.041 393.094C760.72 391.837 759.332 388.888 758.771 381.389L758.205 381.546L748.705 384.214C748.705 384.214 749.163 387.233 749.394 390.095C749.588 392.499 749.113 393.595 749.224 394.381Z" fill="#FFB27D"/>
<path d="M748.702 384.218C748.702 384.218 749.16 387.237 749.391 390.098C754.781 389.523 757.246 384.371 758.202 381.55L748.702 384.218Z" fill="#F4A269"/>
<path d="M748.501 388.611C748.501 388.611 760.934 385.485 758.867 377.775C756.801 370.066 757.015 364.469 748.989 366.137C740.964 367.806 740.218 371.159 740.282 373.9C740.342 376.642 745.214 389.222 748.501 388.611Z" fill="#FFB27D"/>
<path d="M743.302 367.465C743.302 367.465 747.475 375.418 755.35 376.274C759.958 376.775 761.222 379.811 761.222 379.811C761.222 379.811 759.841 371.132 757.523 365.823C757.52 365.823 744.699 362.473 743.302 367.465Z" fill="#163560"/>
<path d="M744.723 368.518C744.723 368.518 742.001 371.296 741.161 373.252C739.917 376.15 742.342 382.262 743.345 383.579C743.345 383.579 737.56 373.767 739.493 369.517C741.542 365.011 744.723 368.518 744.723 368.518Z" fill="#163560"/>
<path d="M706.805 440.087C706.805 440.087 704.331 442.708 704.03 442.848C702.391 443.614 700.325 443.169 699.325 443.42C698.325 443.671 698.499 443.049 699.235 442.544C699.97 442.039 701.786 442.236 701.044 442.052C700.301 441.869 696.302 441.123 694.794 441.524C692.41 442.163 690.527 441.414 690.377 441.17C690.226 440.926 695.824 438.191 697.422 438.285C699.021 438.378 703.619 438.158 703.619 438.158L706.805 440.087Z" fill="#FFB27D"/>
<path d="M773.578 400.044C773.578 400.044 775.066 436.499 770.779 441.611C766.622 446.566 748.869 443.203 741.198 441.538C740.827 441.457 740.041 441.534 739.486 442.032C738.887 442.571 738.626 438.385 738.626 438.385C738.626 438.385 761.783 434.998 763.338 434.557C765.575 433.925 764.017 408.821 764.017 408.821L773.578 400.044Z" fill="#FFB27D"/>
<path d="M740.432 441.046C740.432 441.046 738.355 443.149 737.566 444.222C736.777 445.295 731.26 447.241 731.136 446.666C731.012 446.091 733.604 444.339 733.841 443.687C734.079 443.035 736.904 439.756 738.626 439.381C740.349 439.007 740.432 441.046 740.432 441.046Z" fill="#FFB27D"/>
<path d="M738.627 438.382C738.627 438.382 730.119 440.347 728.675 440.939C727.23 441.528 724.167 445.864 725.384 446.512C726.15 446.924 729.508 445.152 731.213 444.781C732.918 444.413 737.747 445.249 739.957 440.886C740.202 440.394 738.627 438.382 738.627 438.382Z" fill="#FFB27D"/>
<path d="M669.758 537.409C666.457 538.769 662.411 542.985 660.762 544.182C659.114 545.379 648.189 544.951 647.841 544.219C646.915 542.28 650.734 540.899 653.162 539.782C653.198 539.766 653.232 539.749 653.269 539.732L653.275 539.726L653.616 539.615C653.616 539.615 658.328 541.297 662.244 539.615C665.3 538.305 669.831 533.444 672.817 531.468C673.51 533.724 672.751 536.175 669.758 537.409Z" fill="#2A4E96"/>
<path d="M686.498 518.837C684.852 522.006 684.481 527.837 683.993 529.816C683.505 531.792 674.884 538.515 674.145 538.178C672.259 537.329 674.061 534.042 675.212 531.642C675.89 531.602 676.787 531.364 677.843 530.662C679.997 529.228 683.652 523.812 683.98 520.612C684.247 518.008 684.08 514.273 685.524 512.702C687.146 514.043 687.848 516.229 686.498 518.837Z" fill="#193B72"/>
<path d="M727.655 447.612H690.594L679.445 419.893H716.449L727.655 447.612Z" fill="#EF8035"/>
<path d="M690.159 446.529H739.098V447.612H690.594L690.159 446.529Z" fill="#ED7D2B"/>
<path d="M699.95 433.751C699.673 432.775 700.235 431.986 701.208 431.986C702.181 431.986 703.197 432.775 703.478 433.751C703.759 434.724 703.194 435.516 702.221 435.516C701.248 435.516 700.228 434.727 699.95 433.751Z" fill="white"/>
<path d="M763.188 441.701C761.874 444.222 760.442 446.586 758.918 448.716C747.04 448.271 744.174 443.473 744.174 443.473L763.188 441.701Z" fill="#5A7DE0"/>
<path d="M744.729 437.165C744.729 437.165 758.289 434.052 759.974 431.14C761.66 428.225 764.017 408.817 764.017 408.817L769.675 416.069L768.532 433.133C768.532 433.133 762.078 439.518 761.66 439.284C761.245 439.05 744.729 437.165 744.729 437.165Z" fill="#1B8DCC"/>
<path d="M769.374 395.21C769.374 395.21 772.588 396.825 773.828 399.092C776.186 403.398 778.704 436.767 772.002 442.28C765.304 447.793 745.859 446.693 743.572 442.791C743.572 442.791 743.412 439.13 744.726 437.165C744.726 437.165 762.228 434.851 763.011 433.751C763.79 432.648 762.445 409.008 763.271 406.861C764.101 404.712 769.374 395.21 769.374 395.21Z" fill="#00A3FE"/>
<path d="M772.283 441.915C772.283 441.915 767.231 446.649 746.09 447.328C729.558 447.86 712.146 454.523 704.01 465.967C701.743 469.16 700.174 474.415 699.572 477.956C698.469 484.462 739.7 494.575 740.362 493.632C741.024 492.689 767.518 469.932 767.518 469.932L772.283 441.915Z" fill="#185E8D"/>
<path d="M581.109 311.402C581.109 311.402 601.671 332.715 602.641 340.735C603.614 348.756 592.793 361.28 592.793 361.28L581.109 311.402Z" fill="#2B3444"/>
<path d="M571.82 532.284C571.82 532.284 571.094 543.587 568.907 543.748C568.616 543.768 557.809 543.744 557.809 543.744L544.015 543.634C544.015 543.634 544.112 540.311 548.145 539.619C552.177 538.923 558.932 536.105 561.387 530.782C563.972 525.183 571.82 532.284 571.82 532.284Z" fill="#0E2644"/>
<path d="M602.544 532.35C602.544 532.35 601.818 543.657 599.631 543.814C599.341 543.834 588.533 543.811 588.533 543.811L574.739 543.701C574.739 543.701 574.836 540.378 578.869 539.686C582.902 538.99 589.656 536.175 592.111 530.849C594.696 525.249 602.544 532.35 602.544 532.35Z" fill="#0E2644"/>
<path d="M556.809 410.736C556.809 410.736 560.367 433.815 573.736 474.796C587.105 515.778 588.901 533.514 588.901 533.514L603.34 533.139C603.34 533.139 603.561 488.383 597.404 467.779C591.245 447.171 596.227 393.535 596.227 393.535L556.809 410.736Z" fill="#163560"/>
<path d="M549.817 394.695C549.817 394.695 549.232 429.458 555.154 472.155C561.076 514.852 558.999 532.966 558.999 532.966L573.408 533.477C573.408 533.477 582.113 490.794 579.688 469.427C577.267 448.057 591.64 396.14 591.64 396.14L549.817 394.695Z" fill="#1C468A"/>
<path d="M577.886 313.404L570.198 318.419L559.106 316.326C559.26 315.43 560.002 311.722 560.678 308.362C560.718 308.165 560.758 307.965 560.798 307.771C561.377 304.912 561.875 302.455 561.875 302.455L572.248 297.905L576.117 296.21C576.107 296.27 575.809 299.383 575.769 299.837C575.023 307.914 577.886 313.404 577.886 313.404Z" fill="#FFB27D"/>
<path d="M561.962 310.83C562.176 310.74 575.331 306.888 576.759 307.363C578.187 307.838 579.026 310.602 579.026 310.602L557.514 315.417C557.511 315.417 559.213 311.98 561.962 310.83Z" fill="#2B3444"/>
<path d="M597.167 399.092C594.917 409.248 557.829 410.375 548.292 401.128C547.205 400.075 547.165 395.18 547.59 388.587C548.419 375.702 551.037 356.321 551.161 346.419C551.221 341.635 551.887 336.747 552.773 332.307C554.655 322.842 557.514 315.42 557.514 315.42C557.514 315.42 575.639 309.606 579.026 310.609C595.341 315.437 599.418 388.932 597.167 399.092Z" fill="#364154"/>
<path d="M547.59 388.587C548.419 375.702 551.037 356.321 551.161 346.419C551.221 341.635 551.887 336.747 552.773 332.307L563.674 330.408C563.671 330.405 574.231 373.93 547.59 388.587Z" fill="#2B3444"/>
<path d="M553.528 370.637C553.528 370.637 554.267 372.413 552.706 373.603C551.144 374.793 550.128 376.719 550.482 378.13C550.836 379.54 554.254 381.851 555.441 381.483C556.628 381.115 559.046 379.26 558.788 378.517C558.531 377.775 560.427 371.991 557.541 369.755C554.649 367.521 553.528 370.637 553.528 370.637Z" fill="#FFB27D"/>
<path d="M565.838 312.826C565.838 312.826 555.207 314.792 546.713 327.249C538.22 339.705 532.629 348.97 534.177 353.466C535.725 357.963 549.91 373.589 552.361 373.596C554.812 373.603 558.772 371.827 559.002 367.819C559.002 367.819 549.024 352.798 551.004 350.554C551.85 349.595 564.022 339.759 565.747 344.219C568.603 351.597 565.838 312.826 565.838 312.826Z" fill="#364154"/>
<path d="M574.99 299.981C572.706 303.829 564.219 307.146 560.681 308.362C560.721 308.165 560.761 307.965 560.802 307.771C561.38 304.912 561.878 302.455 561.878 302.455L572.251 297.905C574.539 297.881 575.93 298.4 574.99 299.981Z" fill="#FCA56B"/>
<path d="M557.969 301.82C557.969 301.82 574.649 307.062 577.755 296.624C580.862 286.187 585.105 279.838 574.585 276.047C564.065 272.259 560.801 275.622 558.919 278.855C557.036 282.088 553.709 300.188 557.969 301.82Z" fill="#FFB27D"/>
<path d="M559.578 277.852C559.578 277.852 560.614 290.008 563.129 289.483C565.644 288.962 567.924 288.574 567.55 292.238C567.175 295.902 563.677 300.121 571.425 300.787C579.17 301.452 590.352 281.503 588.232 277.715C582.112 266.789 550.733 264.519 559.578 277.852Z" fill="#131F2D"/>
<path d="M694.169 246.288C693.858 246.596 693.854 247.097 694.162 247.408C694.47 247.719 694.971 247.723 695.282 247.415C695.593 247.107 695.597 246.606 695.289 246.295C694.981 245.984 694.48 245.981 694.169 246.288Z" fill="#D5E5FB"/>
<path d="M696.747 248.893C696.436 249.2 696.432 249.702 696.74 250.013C697.048 250.324 697.549 250.327 697.86 250.019C698.171 249.712 698.175 249.21 697.867 248.899C697.559 248.585 697.058 248.585 696.747 248.893Z" fill="#D5E5FB"/>
<path d="M700.479 251.534C700.171 251.223 699.669 251.22 699.358 251.527C699.047 251.835 699.044 252.336 699.352 252.647C699.659 252.958 700.161 252.961 700.472 252.654C700.783 252.343 700.786 251.841 700.479 251.534Z" fill="#D5E5FB"/>
<path d="M701.97 254.162C701.659 254.469 701.656 254.971 701.964 255.282C702.271 255.593 702.773 255.596 703.084 255.288C703.395 254.981 703.398 254.479 703.09 254.168C702.783 253.857 702.281 253.854 701.97 254.162Z" fill="#D5E5FB"/>
<path d="M704.548 256.766C704.237 257.074 704.234 257.575 704.542 257.886C704.849 258.197 705.351 258.2 705.662 257.893C705.973 257.585 705.976 257.084 705.669 256.773C705.361 256.458 704.859 256.459 704.548 256.766Z" fill="#D5E5FB"/>
<path d="M708.28 259.407C707.973 259.096 707.471 259.093 707.16 259.401C706.849 259.708 706.846 260.21 707.153 260.521C707.461 260.831 707.963 260.835 708.274 260.527C708.585 260.216 708.588 259.715 708.28 259.407Z" fill="#D5E5FB"/>
<path d="M709.668 261.931C709.357 262.239 709.354 262.74 709.661 263.051C709.969 263.362 710.471 263.366 710.782 263.058C711.093 262.75 711.096 262.249 710.788 261.938C710.481 261.627 709.979 261.624 709.668 261.931Z" fill="#D5E5FB"/>
<path d="M712.246 264.532C711.935 264.84 711.932 265.342 712.239 265.652C712.547 265.963 713.049 265.967 713.36 265.659C713.671 265.352 713.674 264.85 713.366 264.539C713.059 264.228 712.557 264.225 712.246 264.532Z" fill="#D5E5FB"/>
<path d="M715.978 267.174C715.671 266.863 715.169 266.859 714.858 267.167C714.547 267.475 714.544 267.976 714.851 268.287C715.159 268.598 715.66 268.601 715.971 268.294C716.282 267.986 716.286 267.485 715.978 267.174Z" fill="#D5E5FB"/>
<path d="M717.469 269.805C717.158 270.112 717.155 270.614 717.463 270.925C717.77 271.236 718.272 271.239 718.583 270.931C718.894 270.624 718.897 270.122 718.59 269.811C718.282 269.501 717.78 269.497 717.469 269.805Z" fill="#D5E5FB"/>
<path d="M720.048 272.406C719.737 272.713 719.733 273.215 720.041 273.526C720.349 273.837 720.85 273.84 721.161 273.532C721.472 273.225 721.475 272.723 721.168 272.413C720.86 272.102 720.359 272.098 720.048 272.406Z" fill="#D5E5FB"/>
<path d="M723.78 275.047C723.472 274.736 722.97 274.733 722.659 275.04C722.348 275.348 722.345 275.849 722.653 276.16C722.96 276.471 723.462 276.475 723.773 276.167C724.084 275.859 724.087 275.358 723.78 275.047Z" fill="#D5E5FB"/>
<path d="M662.806 254.322C662.381 254.225 661.957 254.489 661.856 254.917C661.759 255.342 662.023 255.766 662.451 255.867C662.876 255.964 663.301 255.7 663.401 255.272C663.498 254.844 663.231 254.419 662.806 254.322Z" fill="#D5E5FB"/>
<path d="M661.983 257.889C661.558 257.792 661.134 258.057 661.033 258.485C660.936 258.909 661.201 259.334 661.629 259.434C662.053 259.531 662.478 259.267 662.578 258.839C662.675 258.411 662.408 257.986 661.983 257.889Z" fill="#D5E5FB"/>
<path d="M661.742 262.453C661.839 262.028 661.575 261.604 661.147 261.503C660.723 261.407 660.298 261.671 660.198 262.099C660.101 262.523 660.365 262.948 660.793 263.048C661.221 263.145 661.645 262.881 661.742 262.453Z" fill="#D5E5FB"/>
<path d="M660.318 265.121C659.893 265.024 659.468 265.288 659.368 265.716C659.271 266.141 659.535 266.565 659.963 266.665C660.388 266.762 660.813 266.498 660.913 266.07C661.01 265.646 660.743 265.218 660.318 265.121Z" fill="#D5E5FB"/>
<path d="M659.495 268.691C659.071 268.595 658.646 268.859 658.546 269.287C658.449 269.711 658.713 270.136 659.141 270.236C659.566 270.333 659.99 270.069 660.091 269.641C660.188 269.213 659.923 268.788 659.495 268.691Z" fill="#D5E5FB"/>
<path d="M659.258 273.255C659.355 272.83 659.091 272.406 658.663 272.306C658.238 272.209 657.813 272.473 657.713 272.901C657.616 273.325 657.88 273.75 658.308 273.85C658.733 273.947 659.157 273.68 659.258 273.255Z" fill="#D5E5FB"/>
<path d="M657.864 275.776C657.439 275.679 657.014 275.943 656.914 276.371C656.817 276.796 657.081 277.22 657.509 277.32C657.934 277.417 658.358 277.153 658.459 276.725C658.556 276.301 658.292 275.876 657.864 275.776Z" fill="#D5E5FB"/>
<path d="M657.041 279.346C656.616 279.249 656.192 279.514 656.091 279.942C655.994 280.366 656.259 280.791 656.687 280.891C657.111 280.988 657.536 280.724 657.636 280.296C657.733 279.868 657.469 279.443 657.041 279.346Z" fill="#D5E5FB"/>
<path d="M656.803 283.91C656.9 283.485 656.636 283.061 656.208 282.96C655.784 282.864 655.359 283.128 655.259 283.556C655.162 283.98 655.426 284.405 655.854 284.505C656.282 284.602 656.706 284.338 656.803 283.91Z" fill="#D5E5FB"/>
<path d="M655.379 286.578C654.954 286.481 654.53 286.745 654.429 287.173C654.332 287.598 654.596 288.022 655.024 288.122C655.449 288.219 655.874 287.955 655.974 287.527C656.068 287.099 655.804 286.675 655.379 286.578Z" fill="#D5E5FB"/>
<path d="M654.556 290.145C654.131 290.048 653.707 290.312 653.606 290.74C653.509 291.165 653.774 291.589 654.202 291.69C654.626 291.787 655.051 291.523 655.151 291.095C655.248 290.67 654.981 290.245 654.556 290.145Z" fill="#D5E5FB"/>
<path d="M654.315 294.712C654.412 294.287 654.148 293.863 653.72 293.763C653.296 293.666 652.871 293.93 652.771 294.358C652.674 294.782 652.938 295.207 653.366 295.307C653.794 295.404 654.218 295.137 654.315 294.712Z" fill="#D5E5FB"/>
<path d="M692.831 228.803C692.831 219.272 685.103 211.545 675.57 211.545C666.036 211.545 658.308 219.272 658.308 228.803C658.308 238.335 666.036 246.061 675.57 246.061C685.103 246.061 692.831 238.335 692.831 228.803Z" fill="#723D92"/>
<path d="M681.107 221.876C681.107 218.817 678.626 216.336 675.566 216.336C672.507 216.336 670.025 218.817 670.025 221.876C670.025 224.935 672.507 227.416 675.566 227.416C678.629 227.416 681.107 224.938 681.107 221.876Z" fill="#EBF3FA"/>
<path d="M675.57 227.416C680.923 227.416 685.267 231.755 685.267 237.111H665.875C665.872 231.755 670.213 227.416 675.57 227.416Z" fill="#EBF3FA"/>
<path d="M717.64 282.064L717.001 280.48C716.316 278.781 714.667 277.668 712.835 277.668H701.034V285.154V317.115H749.852V285.154H722.228C720.208 285.157 718.396 283.933 717.64 282.064Z" fill="#723D92"/>
<path d="M732.745 295.682H731.113C731.16 295.417 731.186 295.143 731.186 294.866V294.307C731.186 291.736 729.093 289.644 726.521 289.644H723.656C721.084 289.644 718.991 291.736 718.991 294.307V294.866C718.991 295.143 719.018 295.417 719.065 295.682H717.252C716.306 295.682 715.537 296.45 715.537 297.397V304.879C715.537 309.115 718.971 312.548 723.208 312.548H727.735C731.718 312.548 734.942 309.322 734.942 305.344V297.878C734.942 296.664 733.958 295.682 732.745 295.682ZM725.786 303.211V306.688C725.786 306.988 725.538 307.236 725.237 307.236C724.936 307.236 724.689 306.988 724.689 306.688V303.211C723.555 302.96 722.706 301.95 722.706 300.74C722.706 299.342 723.84 298.209 725.237 298.209C726.635 298.209 727.769 299.342 727.769 300.74C727.769 301.953 726.919 302.963 725.786 303.211ZM729.32 294.866C729.32 295.15 729.277 295.424 729.2 295.682H720.981C720.9 295.424 720.857 295.15 720.857 294.866V294.307C720.857 292.763 722.111 291.509 723.656 291.509H726.521C728.066 291.509 729.32 292.763 729.32 294.307V294.866Z" fill="#EBF3FA"/>
<path d="M635.078 319.211C635.078 328.028 650.008 344.115 650.008 344.115C650.008 344.115 664.936 328.028 664.936 319.211C664.936 310.402 658.255 303.257 650.008 303.257C641.762 303.257 635.078 310.399 635.078 319.211ZM641.344 317.593C641.344 312.812 645.22 308.931 650.008 308.931C654.79 308.931 658.673 312.809 658.673 317.593C658.673 322.377 654.794 326.256 650.008 326.256C645.22 326.256 641.344 322.377 641.344 317.593Z" fill="#723D92"/>
<path d="M871.97 545.994H1.02994C0.461466 545.994 0 545.53 0 544.965V544.51C0 543.941 0.46481 543.48 1.02994 543.48H871.97C872.539 543.48 873 543.945 873 544.51V544.965C873 545.53 872.535 545.994 871.97 545.994Z" fill="#233862"/>
<path d="M290.199 312.936C289.831 311.415 290.496 310.218 291.908 310.218C293.312 310.215 294.543 311.392 294.917 312.929C295.285 314.451 294.626 315.647 293.208 315.647C291.787 315.651 290.57 314.474 290.199 312.936ZM293.717 312.929C293.486 311.977 292.84 311.258 292.145 311.258C291.446 311.258 291.162 311.957 291.396 312.933C291.63 313.892 292.262 314.604 292.968 314.604C293.673 314.604 293.951 313.899 293.717 312.929Z" fill="#F99746"/>
<path d="M269.807 273.482L268.938 273.71L268.466 272.764L269.881 272.312H270.677L271.957 277.601L270.804 277.605L269.807 273.482Z" fill="#2F539B"/>
<path d="M273.947 274.967C273.579 273.446 274.245 272.249 275.656 272.249C277.06 272.245 278.291 273.422 278.665 274.96C279.033 276.481 278.374 277.675 276.957 277.678C275.535 277.681 274.318 276.505 273.947 274.967ZM277.465 274.963C277.234 274.011 276.589 273.292 275.893 273.292C275.194 273.292 274.91 273.991 275.144 274.967C275.375 275.926 276.01 276.638 276.716 276.638C277.421 276.635 277.699 275.93 277.465 274.963Z" fill="#2F539B"/>
<path d="M298.806 348.02C298.438 346.499 299.104 345.302 300.515 345.302C301.919 345.299 303.15 346.476 303.524 348.013C303.892 349.535 303.233 350.732 301.816 350.732C300.398 350.732 299.18 349.558 298.806 348.02ZM302.327 348.013C302.096 347.061 301.451 346.342 300.755 346.342C300.057 346.342 299.772 347.041 300.006 348.017C300.24 348.976 300.876 349.688 301.578 349.688C302.284 349.685 302.561 348.98 302.327 348.013Z" fill="#2F539B"/>
<path d="M275.79 298.186L274.92 298.413L274.449 297.467L275.863 297.016H276.659L277.94 302.305H276.786L275.79 298.186Z" fill="#2F539B"/>
<path d="M279.929 299.673C279.562 298.152 280.227 296.955 281.638 296.955C283.043 296.952 284.273 298.129 284.648 299.667C285.016 301.188 284.357 302.381 282.939 302.385C281.518 302.385 280.301 301.208 279.929 299.673ZM283.447 299.667C283.217 298.714 282.571 297.995 281.876 297.995C281.177 297.995 280.893 298.694 281.127 299.67C281.361 300.63 281.993 301.342 282.698 301.342C283.404 301.338 283.681 300.633 283.447 299.667Z" fill="#2F539B"/>
<path d="M279.237 285.759L278.368 285.986L277.896 285.04L279.311 284.589H280.107L281.387 289.878L280.234 289.881L279.237 285.759Z" fill="#F99746"/>
<path d="M283.374 287.243C283.006 285.722 283.671 284.525 285.082 284.525C286.487 284.522 287.717 285.699 288.092 287.236C288.46 288.758 287.801 289.951 286.383 289.955C284.965 289.958 283.748 288.781 283.374 287.243ZM286.895 287.24C286.664 286.287 286.019 285.568 285.323 285.568C284.624 285.568 284.34 286.267 284.574 287.243C284.808 288.203 285.443 288.915 286.146 288.915C286.851 288.911 287.129 288.206 286.895 287.24Z" fill="#F99746"/>
<path d="M279.006 311.462L278.137 311.689L277.666 310.743L279.08 310.292H279.876L281.157 315.581H280.003L279.006 311.462Z" fill="#2F539B"/>
<path d="M283.143 312.949C282.775 311.428 283.44 310.231 284.852 310.231C286.256 310.228 287.487 311.405 287.861 312.943C288.229 314.464 287.57 315.657 286.152 315.661C284.735 315.661 283.517 314.484 283.143 312.949ZM286.664 312.943C286.433 311.99 285.788 311.271 285.092 311.271C284.394 311.271 284.109 311.97 284.343 312.946C284.577 313.906 285.209 314.618 285.915 314.618C286.621 314.614 286.898 313.909 286.664 312.943Z" fill="#2F539B"/>
<path d="M293.954 274.963C293.586 273.442 294.252 272.245 295.663 272.245C297.067 272.242 298.298 273.419 298.672 274.957C299.04 276.478 298.381 277.675 296.963 277.675C295.546 277.675 294.328 276.498 293.954 274.963ZM297.475 274.957C297.244 274.004 296.599 273.285 295.903 273.285C295.205 273.285 294.92 273.984 295.154 274.96C295.388 275.92 296.024 276.632 296.726 276.632C297.432 276.628 297.709 275.923 297.475 274.957Z" fill="#F99746"/>
<path d="M282.762 273.489L281.892 273.716L281.421 272.77L282.835 272.319H283.631L284.912 277.605L283.758 277.608L282.762 273.489Z" fill="#2F539B"/>
<path d="M286.901 274.973C286.534 273.452 287.199 272.255 288.61 272.255C290.015 272.252 291.245 273.429 291.62 274.967C291.988 276.488 291.329 277.681 289.911 277.685C288.493 277.688 287.273 276.511 286.901 274.973ZM290.419 274.967C290.189 274.014 289.543 273.295 288.848 273.295C288.149 273.295 287.864 273.994 288.099 274.97C288.333 275.93 288.968 276.642 289.67 276.642C290.379 276.642 290.653 275.936 290.419 274.967Z" fill="#2F539B"/>
<path d="M296.338 338.579C295.97 337.058 296.636 335.861 298.047 335.861C299.451 335.857 300.682 337.034 301.056 338.572C301.424 340.093 300.766 341.29 299.348 341.29C297.93 341.29 296.713 340.117 296.338 338.579ZM299.859 338.575C299.629 337.623 298.983 336.904 298.288 336.904C297.589 336.904 297.305 337.603 297.539 338.579C297.773 339.538 298.405 340.25 299.11 340.25C299.816 340.247 300.093 339.542 299.859 338.575Z" fill="#F99746"/>
<path d="M281.932 323.832L281.063 324.059L280.592 323.113L282.006 322.662H282.802L284.083 327.951L282.929 327.954L281.932 323.832Z" fill="#2F539B"/>
<path d="M286.072 325.316C285.704 323.795 286.37 322.598 287.781 322.598C289.186 322.595 290.416 323.772 290.791 325.309C291.158 326.831 290.5 328.024 289.082 328.028C287.661 328.031 286.443 326.854 286.072 325.316ZM289.59 325.309C289.359 324.357 288.714 323.638 288.018 323.638C287.32 323.638 287.035 324.337 287.269 325.313C287.504 326.272 288.139 326.984 288.841 326.984C289.547 326.984 289.824 326.279 289.59 325.309Z" fill="#2F539B"/>
<path d="M293.125 325.306C292.757 323.785 293.422 322.588 294.833 322.588C296.238 322.585 297.468 323.762 297.843 325.299C298.211 326.821 297.552 328.018 296.134 328.018C294.716 328.018 293.496 326.841 293.125 325.306ZM296.642 325.299C296.412 324.347 295.766 323.628 295.071 323.628C294.372 323.628 294.088 324.327 294.322 325.303C294.556 326.262 295.191 326.974 295.893 326.974C296.602 326.971 296.876 326.266 296.642 325.299Z" fill="#2F539B"/>
<path d="M300.719 323.798L299.849 324.026L299.378 323.08L300.792 322.628H301.588L302.869 327.917L301.715 327.921L300.719 323.798Z" fill="#2F539B"/>
<path d="M285.149 337.104L284.28 337.332L283.808 336.386L285.223 335.934H286.019L287.299 341.223L286.146 341.227L285.149 337.104Z" fill="#2F539B"/>
<path d="M289.286 338.592C288.918 337.071 289.583 335.874 290.994 335.874C292.399 335.871 293.629 337.048 294.004 338.586C294.372 340.107 293.713 341.3 292.295 341.304C290.877 341.307 289.66 340.13 289.286 338.592ZM292.807 338.586C292.576 337.633 291.931 336.914 291.235 336.914C290.536 336.914 290.252 337.613 290.486 338.589C290.72 339.548 291.352 340.26 292.058 340.26C292.763 340.26 293.041 339.555 292.807 338.586Z" fill="#2F539B"/>
<path d="M302.578 368.016C302.21 366.495 302.876 365.298 304.287 365.298C305.691 365.295 306.922 366.472 307.296 368.009C307.664 369.531 307.005 370.724 305.587 370.728C304.166 370.731 302.949 369.554 302.578 368.016ZM306.096 368.009C305.865 367.057 305.22 366.338 304.524 366.338C303.825 366.338 303.541 367.037 303.775 368.013C304.009 368.972 304.641 369.684 305.347 369.684C306.052 369.684 306.33 368.979 306.096 368.009Z" fill="#2F539B"/>
<path d="M310.172 366.512L309.303 366.739L308.831 365.793L310.246 365.342H311.042L312.322 370.631L311.169 370.634L310.172 366.512Z" fill="#2F539B"/>
<path d="M291.386 366.542L290.516 366.769L290.045 365.823L291.459 365.372H292.255L293.536 370.661L292.382 370.664L291.386 366.542Z" fill="#2F539B"/>
<path d="M295.522 368.03C295.154 366.508 295.82 365.315 297.231 365.311C298.635 365.308 299.866 366.485 300.241 368.023C300.608 369.544 299.95 370.738 298.532 370.741C297.114 370.741 295.897 369.564 295.522 368.03ZM299.043 368.023C298.813 367.07 298.167 366.351 297.472 366.351C296.773 366.351 296.489 367.05 296.723 368.026C296.957 368.986 297.592 369.698 298.294 369.698C299 369.694 299.278 368.989 299.043 368.023Z" fill="#2F539B"/>
<path d="M314.309 367.996C313.941 366.475 314.606 365.281 316.017 365.278C317.422 365.275 318.652 366.451 319.027 367.989C319.395 369.511 318.736 370.704 317.318 370.707C315.9 370.711 314.683 369.534 314.309 367.996ZM317.83 367.989C317.599 367.037 316.954 366.318 316.258 366.318C315.559 366.318 315.275 367.017 315.509 367.993C315.743 368.952 316.379 369.664 317.081 369.664C317.786 369.664 318.064 368.959 317.83 367.989Z" fill="#F99746"/>
<path d="M321.364 367.986C320.996 366.465 321.662 365.268 323.073 365.268C324.478 365.265 325.708 366.442 326.083 367.979C326.45 369.501 325.792 370.694 324.374 370.697C322.953 370.697 321.735 369.521 321.364 367.986ZM324.882 367.979C324.651 367.027 324.006 366.308 323.31 366.308C322.612 366.308 322.327 367.007 322.561 367.983C322.795 368.942 323.428 369.654 324.133 369.654C324.839 369.651 325.116 368.946 324.882 367.979Z" fill="#F99746"/>
<path d="M293.86 377.484C293.493 375.963 294.158 374.766 295.569 374.766C296.974 374.763 298.204 375.94 298.579 377.478C298.947 378.999 298.288 380.196 296.87 380.196C295.452 380.199 294.235 379.022 293.86 377.484ZM297.382 377.478C297.151 376.525 296.505 375.806 295.81 375.806C295.111 375.806 294.827 376.505 295.061 377.481C295.295 378.44 295.927 379.153 296.633 379.153C297.338 379.153 297.616 378.447 297.382 377.478Z" fill="#2F539B"/>
<path d="M301.458 375.98L300.588 376.207L300.117 375.261L301.531 374.81H302.327L303.608 380.099H302.454L301.458 375.98Z" fill="#2F539B"/>
<path d="M305.594 377.464C305.226 375.943 305.892 374.75 307.303 374.746C308.707 374.743 309.938 375.92 310.313 377.458C310.68 378.979 310.022 380.172 308.604 380.176C307.186 380.179 305.969 379.002 305.594 377.464ZM309.115 377.461C308.885 376.508 308.239 375.789 307.544 375.789C306.845 375.789 306.561 376.488 306.795 377.464C307.029 378.424 307.661 379.136 308.366 379.136C309.072 379.133 309.35 378.427 309.115 377.461Z" fill="#2F539B"/>
<path d="M312.647 377.454C312.279 375.933 312.944 374.736 314.356 374.736C315.76 374.733 316.991 375.91 317.365 377.447C317.733 378.969 317.074 380.166 315.656 380.166C314.238 380.166 313.021 378.992 312.647 377.454ZM316.168 377.447C315.937 376.495 315.292 375.776 314.596 375.776C313.897 375.776 313.613 376.475 313.847 377.451C314.078 378.41 314.713 379.122 315.419 379.122C316.124 379.119 316.402 378.414 316.168 377.447Z" fill="#2F539B"/>
<path d="M515.959 368.016C515.591 366.495 516.257 365.298 517.668 365.298C519.072 365.295 520.303 366.472 520.678 368.009C521.045 369.531 520.387 370.724 518.969 370.728C517.551 370.731 516.334 369.554 515.959 368.016ZM519.48 368.009C519.25 367.057 518.604 366.338 517.909 366.338C517.21 366.338 516.926 367.037 517.16 368.013C517.391 368.972 518.026 369.684 518.731 369.684C519.437 369.684 519.715 368.979 519.48 368.009Z" fill="#2F539B"/>
<path d="M523.553 366.512L522.684 366.739L522.212 365.793L523.627 365.342H524.423L525.703 370.631L524.55 370.634L523.553 366.512Z" fill="#2F539B"/>
<path d="M504.767 366.542L503.898 366.769L503.426 365.823L504.841 365.372H505.636L506.917 370.661L505.763 370.664L504.767 366.542Z" fill="#2F539B"/>
<path d="M508.907 368.03C508.539 366.508 509.204 365.315 510.616 365.311C512.02 365.308 513.251 366.485 513.625 368.023C513.993 369.544 513.334 370.738 511.916 370.741C510.495 370.741 509.278 369.564 508.907 368.03ZM512.425 368.023C512.194 367.07 511.549 366.351 510.85 366.351C510.151 366.351 509.866 367.05 510.101 368.026C510.335 368.986 510.97 369.698 511.672 369.698C512.385 369.694 512.659 368.989 512.425 368.023Z" fill="#2F539B"/>
<path d="M527.693 367.996C527.325 366.475 527.991 365.281 529.402 365.278C530.806 365.275 532.037 366.451 532.411 367.989C532.779 369.511 532.121 370.704 530.703 370.707C529.282 370.711 528.064 369.534 527.693 367.996ZM531.211 367.989C530.98 367.037 530.335 366.318 529.636 366.318C528.937 366.318 528.653 367.017 528.887 367.993C529.121 368.952 529.753 369.664 530.459 369.664C531.171 369.664 531.445 368.959 531.211 367.989Z" fill="#F99746"/>
<path d="M534.746 367.986C534.378 366.465 535.043 365.268 536.454 365.268C537.859 365.265 539.089 366.442 539.464 367.979C539.832 369.501 539.173 370.694 537.755 370.697C536.337 370.697 535.117 369.521 534.746 367.986ZM538.267 367.979C538.036 367.027 537.391 366.308 536.695 366.308C535.996 366.308 535.712 367.007 535.946 367.983C536.18 368.942 536.812 369.654 537.518 369.654C538.223 369.651 538.501 368.946 538.267 367.979Z" fill="#F99746"/>
<path d="M487.753 377.484C487.385 375.963 488.051 374.766 489.462 374.766C490.866 374.763 492.097 375.94 492.471 377.478C492.839 378.999 492.18 380.196 490.763 380.196C489.345 380.196 488.124 379.022 487.753 377.484ZM491.271 377.478C491.04 376.525 490.395 375.806 489.699 375.806C489 375.806 488.716 376.505 488.95 377.481C489.184 378.44 489.816 379.153 490.522 379.153C491.227 379.153 491.505 378.447 491.271 377.478Z" fill="#2F539B"/>
<path d="M495.347 375.98L494.478 376.207L494.006 375.261L495.421 374.81H496.216L497.497 380.099H496.344L495.347 375.98Z" fill="#2F539B"/>
<path d="M499.483 377.464C499.116 375.943 499.781 374.75 501.192 374.746C502.597 374.743 503.827 375.92 504.202 377.458C504.57 378.979 503.911 380.172 502.493 380.176C501.075 380.179 499.858 379.002 499.483 377.464ZM503.005 377.461C502.774 376.508 502.129 375.789 501.433 375.789C500.734 375.789 500.45 376.488 500.684 377.464C500.918 378.424 501.55 379.136 502.256 379.136C502.961 379.133 503.239 378.427 503.005 377.461Z" fill="#2F539B"/>
<path d="M506.539 377.454C506.172 375.933 506.837 374.736 508.248 374.736C509.653 374.733 510.883 375.91 511.258 377.447C511.626 378.969 510.967 380.166 509.549 380.166C508.131 380.166 506.911 378.992 506.539 377.454ZM510.057 377.447C509.826 376.495 509.181 375.776 508.482 375.776C507.783 375.776 507.499 376.475 507.733 377.451C507.967 378.41 508.599 379.122 509.305 379.122C510.01 379.122 510.291 378.414 510.057 377.447Z" fill="#2F539B"/>
<path d="M311.536 402.268C311.169 400.747 311.834 399.553 313.245 399.55C314.65 399.546 315.88 400.723 316.255 402.261C316.623 403.782 315.964 404.976 314.546 404.979C313.125 404.983 311.908 403.806 311.536 402.268ZM315.054 402.261C314.824 401.308 314.178 400.589 313.483 400.589C312.784 400.589 312.499 401.288 312.734 402.264C312.968 403.224 313.6 403.936 314.305 403.936C315.011 403.936 315.288 403.231 315.054 402.261Z" fill="#F99746"/>
<path d="M319.13 400.763L318.261 400.991L317.79 400.045L319.204 399.593H320L321.281 404.882L320.127 404.886L319.13 400.763Z" fill="#F99746"/>
<path d="M297.127 387.517L296.258 387.745L295.786 386.799L297.201 386.347H297.997L299.277 391.636L298.124 391.64L297.127 387.517Z" fill="#2F539B"/>
<path d="M301.267 389.005C300.899 387.484 301.565 386.287 302.976 386.287C304.38 386.284 305.611 387.461 305.985 388.998C306.353 390.52 305.695 391.717 304.277 391.717C302.856 391.717 301.638 390.54 301.267 389.005ZM304.785 388.998C304.554 388.046 303.909 387.327 303.213 387.327C302.514 387.327 302.23 388.026 302.464 389.002C302.698 389.961 303.33 390.673 304.036 390.673C304.742 390.67 305.019 389.965 304.785 388.998Z" fill="#2F539B"/>
<path d="M308.32 388.992C307.952 387.471 308.617 386.277 310.028 386.274C311.433 386.27 312.663 387.447 313.038 388.985C313.406 390.506 312.747 391.7 311.329 391.703C309.911 391.706 308.691 390.53 308.32 388.992ZM311.837 388.985C311.607 388.032 310.961 387.313 310.266 387.313C309.567 387.313 309.283 388.012 309.517 388.988C309.751 389.948 310.386 390.66 311.088 390.66C311.797 390.66 312.072 389.955 311.837 388.985Z" fill="#2F539B"/>
<path d="M315.914 387.487L315.044 387.715L314.573 386.768L315.987 386.317H316.783L318.064 391.606L316.91 391.609L315.914 387.487Z" fill="#2F539B"/>
<path d="M503.6 387.517L502.731 387.745L502.259 386.799L503.674 386.347H504.469L505.75 391.636L504.596 391.64L503.6 387.517Z" fill="#2F539B"/>
<path d="M507.74 389.005C507.372 387.484 508.037 386.287 509.449 386.287C510.853 386.284 512.084 387.461 512.458 388.998C512.826 390.52 512.167 391.717 510.749 391.717C509.332 391.717 508.111 390.54 507.74 389.005ZM511.258 388.998C511.027 388.046 510.381 387.327 509.686 387.327C508.987 387.327 508.703 388.026 508.937 389.002C509.171 389.961 509.803 390.673 510.509 390.673C511.214 390.67 511.492 389.965 511.258 388.998Z" fill="#2F539B"/>
<path d="M514.792 388.992C514.424 387.471 515.09 386.277 516.501 386.274C517.905 386.27 519.136 387.447 519.511 388.985C519.878 390.506 519.22 391.7 517.802 391.703C516.381 391.706 515.163 390.53 514.792 388.992ZM518.31 388.985C518.079 388.032 517.434 387.313 516.738 387.313C516.04 387.313 515.755 388.012 515.989 388.988C516.224 389.948 516.856 390.66 517.561 390.66C518.267 390.66 518.544 389.955 518.31 388.985Z" fill="#2F539B"/>
<path d="M522.386 387.487L521.517 387.715L521.045 386.768L522.46 386.317H523.256L524.536 391.606L523.383 391.609L522.386 387.487Z" fill="#2F539B"/>
<path d="M300.344 400.793L299.475 401.021L299.003 400.075L300.418 399.623H301.214L302.494 404.912L301.341 404.916L300.344 400.793Z" fill="#2F539B"/>
<path d="M304.481 402.281C304.113 400.76 304.778 399.563 306.19 399.563C307.594 399.56 308.825 400.737 309.199 402.274C309.567 403.796 308.908 404.993 307.49 404.993C306.072 404.993 304.855 403.816 304.481 402.281ZM308.002 402.274C307.771 401.322 307.126 400.603 306.43 400.603C305.731 400.603 305.447 401.302 305.681 402.278C305.912 403.237 306.547 403.949 307.253 403.949C307.958 403.946 308.236 403.241 308.002 402.274Z" fill="#2F539B"/>
<path d="M323.267 402.248C322.899 400.727 323.565 399.53 324.976 399.53C326.38 399.526 327.611 400.703 327.985 402.241C328.353 403.762 327.695 404.956 326.277 404.959C324.859 404.962 323.642 403.786 323.267 402.248ZM326.788 402.241C326.558 401.288 325.912 400.569 325.217 400.569C324.518 400.569 324.234 401.268 324.468 402.244C324.702 403.204 325.334 403.916 326.039 403.916C326.745 403.916 327.022 403.211 326.788 402.241Z" fill="#2F539B"/>
<path d="M330.319 402.234C329.952 400.713 330.617 399.52 332.028 399.516C333.433 399.513 334.663 400.69 335.038 402.228C335.406 403.749 334.747 404.942 333.329 404.946C331.911 404.949 330.694 403.772 330.319 402.234ZM333.841 402.231C333.61 401.278 332.964 400.559 332.269 400.559C331.57 400.559 331.286 401.258 331.52 402.234C331.754 403.194 332.386 403.906 333.092 403.906C333.797 403.903 334.075 403.197 333.841 402.231Z" fill="#2F539B"/>
<path d="M314.255 411.642C313.887 410.121 314.553 408.924 315.964 408.924C317.368 408.921 318.599 410.098 318.973 411.636C319.341 413.157 318.683 414.35 317.265 414.354C315.844 414.354 314.626 413.177 314.255 411.642ZM317.773 411.636C317.542 410.683 316.897 409.964 316.201 409.964C315.502 409.964 315.218 410.663 315.452 411.639C315.686 412.598 316.318 413.311 317.024 413.311C317.733 413.307 318.007 412.602 317.773 411.636Z" fill="#F99746"/>
<path d="M321.849 410.134L320.98 410.362L320.508 409.416L321.923 408.964H322.719L323.999 414.253L322.846 414.257L321.849 410.134Z" fill="#F99746"/>
<path d="M307.203 411.652C306.835 410.131 307.5 408.934 308.911 408.934C310.316 408.931 311.546 410.108 311.921 411.646C312.289 413.167 311.63 414.364 310.212 414.364C308.791 414.367 307.574 413.19 307.203 411.652ZM310.721 411.646C310.49 410.693 309.844 409.974 309.149 409.974C308.45 409.974 308.166 410.673 308.4 411.649C308.634 412.609 309.266 413.321 309.971 413.321C310.677 413.321 310.955 412.615 310.721 411.646Z" fill="#2F539B"/>
<path d="M325.989 411.622C325.621 410.101 326.287 408.904 327.698 408.904C329.102 408.901 330.333 410.078 330.707 411.615C331.075 413.137 330.416 414.334 328.999 414.334C327.577 414.334 326.36 413.16 325.989 411.622ZM329.507 411.615C329.276 410.663 328.631 409.944 327.935 409.944C327.236 409.944 326.952 410.643 327.186 411.619C327.42 412.578 328.056 413.29 328.758 413.29C329.463 413.287 329.741 412.582 329.507 411.615Z" fill="#2F539B"/>
<path d="M333.042 411.609C332.674 410.088 333.339 408.894 334.75 408.891C336.155 408.887 337.385 410.064 337.76 411.602C338.128 413.123 337.469 414.317 336.051 414.32C334.63 414.324 333.413 413.147 333.042 411.609ZM336.559 411.602C336.329 410.649 335.683 409.931 334.988 409.931C334.289 409.931 334.005 410.629 334.239 411.606C334.473 412.565 335.105 413.277 335.81 413.277C336.516 413.277 336.793 412.572 336.559 411.602Z" fill="#2F539B"/>
<path d="M357.309 411.642C356.941 410.121 357.606 408.924 359.017 408.924C360.422 408.921 361.652 410.098 362.027 411.636C362.395 413.157 361.736 414.35 360.318 414.354C358.9 414.354 357.683 413.177 357.309 411.642ZM360.83 411.636C360.599 410.683 359.954 409.964 359.258 409.964C358.559 409.964 358.275 410.663 358.509 411.639C358.743 412.598 359.375 413.311 360.081 413.311C360.786 413.307 361.064 412.602 360.83 411.636Z" fill="#F99746"/>
<path d="M364.903 410.134L364.033 410.362L363.562 409.416L364.976 408.964H365.772L367.053 414.253L365.899 414.257L364.903 410.134Z" fill="#F99746"/>
<path d="M350.256 411.652C349.888 410.131 350.554 408.934 351.965 408.934C353.369 408.931 354.6 410.108 354.974 411.646C355.342 413.167 354.684 414.364 353.266 414.364C351.848 414.364 350.627 413.19 350.256 411.652ZM353.774 411.646C353.543 410.693 352.898 409.974 352.202 409.974C351.503 409.974 351.219 410.673 351.453 411.649C351.687 412.609 352.323 413.321 353.025 413.321C353.727 413.321 354.011 412.615 353.774 411.646Z" fill="#2F539B"/>
<path d="M369.043 411.622C368.675 410.101 369.34 408.904 370.751 408.904C372.156 408.901 373.386 410.078 373.761 411.615C374.129 413.137 373.47 414.334 372.052 414.334C370.634 414.334 369.414 413.16 369.043 411.622ZM372.56 411.615C372.33 410.663 371.684 409.944 370.989 409.944C370.29 409.944 370.006 410.643 370.24 411.619C370.474 412.578 371.109 413.29 371.811 413.29C372.52 413.287 372.794 412.582 372.56 411.615Z" fill="#2F539B"/>
<path d="M376.095 411.609C375.727 410.088 376.392 408.894 377.804 408.891C379.208 408.887 380.439 410.064 380.813 411.602C381.181 413.123 380.522 414.317 379.104 414.32C377.686 414.324 376.469 413.147 376.095 411.609ZM379.616 411.602C379.385 410.649 378.74 409.931 378.044 409.931C377.345 409.931 377.061 410.629 377.295 411.606C377.529 412.565 378.161 413.277 378.867 413.277C379.572 413.277 379.85 412.572 379.616 411.602Z" fill="#2F539B"/>
<path d="M455.333 411.642C454.965 410.121 455.631 408.924 457.042 408.924C458.447 408.921 459.677 410.098 460.052 411.636C460.419 413.157 459.761 414.35 458.343 414.354C456.922 414.354 455.704 413.177 455.333 411.642ZM458.851 411.636C458.62 410.683 457.975 409.964 457.279 409.964C456.581 409.964 456.296 410.663 456.53 411.639C456.764 412.598 457.396 413.311 458.102 413.311C458.808 413.307 459.085 412.602 458.851 411.636Z" fill="#F99746"/>
<path d="M462.927 410.134L462.058 410.362L461.586 409.416L463.001 408.964H463.797L465.078 414.253L463.924 414.257L462.927 410.134Z" fill="#F99746"/>
<path d="M448.278 411.652C447.91 410.131 448.575 408.934 449.986 408.934C451.391 408.931 452.621 410.108 452.996 411.646C453.364 413.167 452.705 414.364 451.287 414.364C449.869 414.364 448.652 413.19 448.278 411.652ZM451.799 411.646C451.568 410.693 450.923 409.974 450.227 409.974C449.528 409.974 449.244 410.673 449.478 411.649C449.712 412.609 450.344 413.321 451.05 413.321C451.755 413.321 452.033 412.615 451.799 411.646Z" fill="#2F539B"/>
<path d="M467.064 411.622C466.696 410.101 467.361 408.904 468.773 408.904C470.177 408.901 471.408 410.078 471.782 411.615C472.15 413.137 471.491 414.334 470.073 414.334C468.655 414.334 467.438 413.16 467.064 411.622ZM470.585 411.615C470.354 410.663 469.709 409.944 469.013 409.944C468.314 409.944 468.03 410.643 468.264 411.619C468.495 412.578 469.13 413.29 469.836 413.29C470.541 413.287 470.819 412.582 470.585 411.615Z" fill="#2F539B"/>
<path d="M474.116 411.609C473.748 410.088 474.414 408.894 475.825 408.891C477.229 408.887 478.46 410.064 478.835 411.602C479.202 413.123 478.544 414.317 477.126 414.32C475.708 414.324 474.491 413.147 474.116 411.609ZM477.637 411.602C477.407 410.649 476.761 409.931 476.066 409.931C475.367 409.931 475.083 410.629 475.317 411.606C475.551 412.565 476.183 413.277 476.888 413.277C477.594 413.277 477.872 412.572 477.637 411.602Z" fill="#2F539B"/>
<path d="M498.387 411.642C498.019 410.121 498.684 408.924 500.096 408.924C501.5 408.921 502.731 410.098 503.105 411.636C503.473 413.157 502.814 414.35 501.396 414.354C499.978 414.354 498.758 413.177 498.387 411.642ZM501.905 411.636C501.674 410.683 501.028 409.964 500.333 409.964C499.634 409.964 499.35 410.663 499.584 411.639C499.815 412.598 500.45 413.311 501.156 413.311C501.864 413.307 502.142 412.602 501.905 411.636Z" fill="#F99746"/>
<path d="M505.981 410.134L505.111 410.362L504.64 409.416L506.054 408.964H506.85L508.131 414.253L506.977 414.257L505.981 410.134Z" fill="#F99746"/>
<path d="M491.334 411.652C490.966 410.131 491.632 408.934 493.043 408.934C494.448 408.931 495.678 410.108 496.053 411.646C496.42 413.167 495.762 414.364 494.344 414.364C492.926 414.364 491.705 413.19 491.334 411.652ZM494.852 411.646C494.621 410.693 493.976 409.974 493.28 409.974C492.582 409.974 492.297 410.673 492.531 411.649C492.766 412.609 493.401 413.321 494.106 413.321C494.812 413.321 495.086 412.615 494.852 411.646Z" fill="#2F539B"/>
<path d="M510.121 411.622C509.753 410.101 510.418 408.904 511.829 408.904C513.234 408.901 514.464 410.078 514.839 411.615C515.207 413.137 514.548 414.334 513.13 414.334C511.709 414.334 510.492 413.16 510.121 411.622ZM513.638 411.615C513.408 410.663 512.762 409.944 512.064 409.944C511.365 409.944 511.08 410.643 511.314 411.619C511.548 412.578 512.181 413.29 512.886 413.29C513.595 413.287 513.873 412.582 513.638 411.615Z" fill="#2F539B"/>
<path d="M517.173 411.609C516.805 410.088 517.471 408.894 518.882 408.891C520.286 408.887 521.517 410.064 521.891 411.602C522.259 413.123 521.601 414.317 520.183 414.32C518.765 414.324 517.544 413.147 517.173 411.609ZM520.691 411.602C520.46 410.649 519.815 409.931 519.119 409.931C518.42 409.931 518.136 410.629 518.37 411.606C518.604 412.565 519.236 413.277 519.942 413.277C520.651 413.277 520.928 412.572 520.691 411.602Z" fill="#2F539B"/>
<path d="M337.375 402.224C337.007 400.703 337.673 399.506 339.084 399.506C340.489 399.503 341.719 400.68 342.094 402.218C342.461 403.739 341.803 404.932 340.385 404.936C338.964 404.939 337.746 403.762 337.375 402.224ZM340.893 402.218C340.662 401.265 340.017 400.546 339.321 400.546C338.623 400.546 338.338 401.245 338.572 402.221C338.807 403.18 339.442 403.893 340.144 403.893C340.85 403.893 341.127 403.187 340.893 402.218Z" fill="#2F539B"/>
<path d="M344.428 402.211C344.06 400.69 344.725 399.493 346.136 399.493C347.541 399.49 348.771 400.666 349.146 402.204C349.514 403.725 348.855 404.922 347.437 404.922C346.019 404.926 344.799 403.749 344.428 402.211ZM347.945 402.208C347.715 401.255 347.069 400.536 346.374 400.536C345.675 400.536 345.391 401.235 345.625 402.211C345.859 403.17 346.494 403.883 347.196 403.883C347.905 403.879 348.179 403.174 347.945 402.208Z" fill="#2F539B"/>
<path d="M473.364 402.224C472.996 400.703 473.661 399.506 475.073 399.506C476.477 399.503 477.708 400.68 478.082 402.218C478.45 403.739 477.791 404.932 476.373 404.936C474.956 404.939 473.738 403.762 473.364 402.224ZM476.885 402.218C476.654 401.265 476.009 400.546 475.313 400.546C474.614 400.546 474.33 401.245 474.564 402.221C474.798 403.18 475.43 403.893 476.136 403.893C476.842 403.893 477.119 403.187 476.885 402.218Z" fill="#2F539B"/>
<path d="M480.42 402.211C480.052 400.69 480.717 399.493 482.128 399.493C483.533 399.49 484.764 400.666 485.138 402.204C485.506 403.725 484.847 404.922 483.429 404.922C482.011 404.922 480.791 403.749 480.42 402.211ZM483.938 402.208C483.707 401.255 483.061 400.536 482.366 400.536C481.667 400.536 481.383 401.235 481.617 402.211C481.851 403.17 482.483 403.883 483.188 403.883C483.894 403.879 484.172 403.174 483.938 402.208Z" fill="#2F539B"/>
</svg>
